<?xml version="1.0" encoding="UTF-8"?>
<svg id="Layer_1" xmlns="http://www.w3.org/2000/svg" version="1.1" xmlns:xlink="http://www.w3.org/1999/xlink" viewBox="0 0 1629.4 1094">
  <!-- Generator: Adobe Illustrator 30.4.0, SVG Export Plug-In . SVG Version: 2.1.4 Build 226)  -->
  <defs>
    <style>
      .st0 {
        fill: #9d2414;
      }

      .st1 {
        fill: url(#linear-gradient2);
      }

      .st2 {
        fill: #1a1918;
      }

      .st3 {
        clip-path: url(#clippath-21);
      }

      .st4 {
        clip-path: url(#clippath-6);
      }

      .st5 {
        clip-path: url(#clippath-7);
      }

      .st6 {
        clip-path: url(#clippath-17);
      }

      .st7 {
        opacity: .1;
      }

      .st7, .st8, .st9, .st10 {
        fill: #be4d6b;
      }

      .st11 {
        fill: #700121;
      }

      .st12 {
        clip-path: url(#clippath-15);
      }

      .st13 {
        fill: #bd3317;
      }

      .st14 {
        clip-path: url(#clippath-18);
      }

      .st15 {
        clip-path: url(#clippath-4);
      }

      .st16 {
        clip-path: url(#clippath-22);
      }

      .st17 {
        clip-path: url(#clippath-23);
      }

      .st18 {
        fill: #de6f75;
      }

      .st19 {
        fill: #720820;
      }

      .st20 {
        fill: #6d0621;
      }

      .st21 {
        fill: #ce7081;
      }

      .st22 {
        fill: #e96572;
      }

      .st23 {
        fill: #d1727a;
      }

      .st24 {
        opacity: .6;
      }

      .st24, .st25, .st26, .st27 {
        fill: #fff;
      }

      .st28 {
        fill: #97220f;
      }

      .st29 {
        clip-path: url(#clippath-9);
      }

      .st30 {
        clip-path: url(#clippath-10);
      }

      .st31 {
        fill: #4f042b;
      }

      .st9, .st25 {
        opacity: .5;
      }

      .st32 {
        fill: url(#linear-gradient1);
      }

      .st33 {
        clip-path: url(#clippath-25);
      }

      .st34 {
        fill: url(#linear-gradient9);
      }

      .st35 {
        fill: #f4dcc4;
      }

      .st36 {
        fill: #801531;
      }

      .st37 {
        fill: #5f011c;
      }

      .st38 {
        fill: #ba2f15;
      }

      .st39 {
        clip-path: url(#clippath-11);
      }

      .st40 {
        fill: url(#linear-gradient8);
      }

      .st41 {
        fill: none;
      }

      .st42 {
        fill: #f1d9c1;
      }

      .st10 {
        opacity: .2;
      }

      .st43 {
        fill: #6c0b22;
      }

      .st44 {
        fill: #a6273a;
      }

      .st45 {
        fill: #9d132d;
      }

      .st46 {
        fill: #330a17;
      }

      .st47 {
        fill: #e8cab0;
      }

      .st48 {
        clip-path: url(#clippath-1);
      }

      .st49 {
        fill: #990f30;
      }

      .st26 {
        opacity: .4;
      }

      .st50 {
        fill: #e5c8af;
      }

      .st51 {
        clip-path: url(#clippath-5);
      }

      .st52 {
        clip-path: url(#clippath-20);
      }

      .st53 {
        fill: #5d0015;
      }

      .st54 {
        fill: #5f0921;
      }

      .st55 {
        clip-path: url(#clippath-8);
      }

      .st56 {
        fill: #e1551b;
      }

      .st57 {
        fill: #6e0b23;
      }

      .st58 {
        fill: #83001f;
      }

      .st59 {
        fill: #6e001b;
      }

      .st60 {
        clip-path: url(#clippath-3);
      }

      .st27 {
        opacity: .5;
      }

      .st61 {
        fill: #992535;
      }

      .st62 {
        fill: url(#linear-gradient7);
      }

      .st63 {
        fill: #b12b43;
      }

      .st64 {
        clip-path: url(#clippath-12);
      }

      .st65 {
        fill: url(#linear-gradient4);
      }

      .st66 {
        clip-path: url(#clippath-14);
      }

      .st67 {
        fill: #560b20;
      }

      .st68 {
        clip-path: url(#clippath-19);
      }

      .st69 {
        fill: #e04f1a;
      }

      .st70 {
        fill: #ad4052;
      }

      .st71 {
        fill: #df4c19;
      }

      .st72 {
        fill: url(#linear-gradient5);
      }

      .st73 {
        fill: #7b1f36;
      }

      .st74 {
        fill: url(#linear-gradient3);
      }

      .st75 {
        fill: #7e0723;
      }

      .st76 {
        fill: #820223;
      }

      .st77 {
        display: none;
      }

      .st78 {
        fill: #d4777e;
      }

      .st79 {
        fill: #ab2a3b;
      }

      .st80 {
        fill: #131217;
      }

      .st81 {
        fill: #941542;
      }

      .st82 {
        fill: url(#linear-gradient6);
      }

      .st83 {
        clip-path: url(#clippath-16);
      }

      .st84 {
        clip-path: url(#clippath-2);
      }

      .st85 {
        fill: #df4c18;
      }

      .st86 {
        fill: #b13141;
      }

      .st87 {
        clip-path: url(#clippath-13);
      }

      .st88 {
        fill: url(#linear-gradient);
      }

      .st89 {
        clip-path: url(#clippath-24);
      }

      .st90 {
        fill: #6d001d;
      }

      .st91 {
        clip-path: url(#clippath);
      }

      .st92 {
        fill: #4e0b1e;
      }

      .st93 {
        fill: #f3dec9;
      }
    </style>
    <clipPath id="clippath">
      <rect class="st41" width="1636.4" height="1094.3"/>
    </clipPath>
    <clipPath id="clippath-1">
      <rect class="st41" x="-5" y="-5" width="1646.4" height="1104.3"/>
    </clipPath>
    <clipPath id="clippath-2">
      <path class="st41" d="M1597.6,351.6s35.5-7.6,38.8,13.3c3.3,20.9,0,114.3,0,114.3h-65.9l-6.8-110.2,33.8-17.4Z"/>
    </clipPath>
    <clipPath id="clippath-3">
      <rect class="st41" x="1558.8" y="345.3" width="84.2" height="138.9"/>
    </clipPath>
    <clipPath id="clippath-4">
      <path class="st41" d="M1439.2,952.3s128.9-64.3,197.2-147.7l3.3-75.3h-111.8l-62.6,93.2-26.2,129.8Z"/>
    </clipPath>
    <clipPath id="clippath-5">
      <rect class="st41" x="1434.2" y="724.3" width="210.6" height="233"/>
    </clipPath>
    <clipPath id="clippath-6">
      <path class="st41" d="M1593.2,574.9s39.8,18.9,43.2,46c3.3,27.1,0,111.5,0,111.5,0,0-49.1,42.1-111.5,13.2-62.4-28.9-160-173.7-160-173.7l228.3,3.1Z"/>
    </clipPath>
    <clipPath id="clippath-7">
      <rect class="st41" x="1359.9" y="566.8" width="283" height="193.8"/>
    </clipPath>
    <clipPath id="clippath-8">
      <path class="st41" d="M1470.3,250.1s103.8-34.2,135.6,23.8c31.8,57.9-8.4,77.7-8.4,77.7l-45.9,17.4-81.4-118.9Z"/>
    </clipPath>
    <clipPath id="clippath-9">
      <rect class="st41" x="1465.3" y="235.1" width="157.9" height="138.9"/>
    </clipPath>
    <clipPath id="clippath-10">
      <path class="st41" d="M1483.4,272.2s17.4-5.5,32.8,3.6l8.7,24.5-6.7,32-8.6,14.2-12.7-2.7-7.8-18.3-5.7-53.4Z"/>
    </clipPath>
    <clipPath id="clippath-11">
      <rect class="st41" x="1478.4" y="265.6" width="51.5" height="86"/>
    </clipPath>
    <clipPath id="clippath-12">
      <path class="st41" d="M1212.3,364.9s-43.2,87.4,10.5,157.2c53.7,69.8,142.1,49.7,142.1,49.7,0,0,69.9-11.1,69.9-9.5v-63.5l-169.8-178.6-52.7,44.7Z"/>
    </clipPath>
    <clipPath id="clippath-13">
      <rect class="st41" x="1190.8" y="315.2" width="249" height="264.3"/>
    </clipPath>
    <clipPath id="clippath-14">
      <path class="st41" d="M1434.8,226.3h0v194.9l-9.6,5-15,1c-51.7-44.3-80.9-71.7-94-87.4-11.7-14-11.1-19.6-11.1-19.6l16.1-29.6c35.2-84.4,113.6-64.3,113.6-64.3,0,0,30.5,10.8,45.9,38l-30.1,2-15.8-4.6"/>
    </clipPath>
    <clipPath id="clippath-15">
      <rect class="st41" x="1300.1" y="219.2" width="185.6" height="213"/>
    </clipPath>
    <clipPath id="clippath-16">
      <path class="st41" d="M1305.1,522.6s98.6,75.3,129.7,135.6h0v-95.9s-45.2-36.7-127.1-39.7"/>
    </clipPath>
    <clipPath id="clippath-17">
      <rect class="st41" x="1300.1" y="517.6" width="139.7" height="145.6"/>
    </clipPath>
    <linearGradient id="linear-gradient" x1="1302.2" y1="298" x2="1325.9" y2="302.7" gradientUnits="userSpaceOnUse">
      <stop offset="0" stop-color="#a2263e"/>
      <stop offset="1" stop-color="#ac354a"/>
    </linearGradient>
    <clipPath id="clippath-18">
      <path class="st41" d="M1376.9,374.4l57.9-61.8,15.8-19.3s-8.3-.7-19.3-.2c-13.5.6-31.6,2.9-43.2,7.2-21,8-34.7,54.5-34.7,54.5,0,0,6.5,11.4,23.5,19.6Z"/>
    </clipPath>
    <clipPath id="clippath-19">
      <rect class="st41" x="1348.4" y="287.9" width="107.2" height="91.5"/>
    </clipPath>
    <clipPath id="clippath-20">
      <path class="st41" d="M1318.2,341.8s52.6,50.9,92,85.4c17.3,15.1-38.9,13.2-92,1.3,0,0-4.5-20.2,0-86.6Z"/>
    </clipPath>
    <clipPath id="clippath-21">
      <rect class="st41" x="1311.2" y="336.8" width="107.2" height="106.2"/>
    </clipPath>
    <linearGradient id="linear-gradient1" x1="1395.1" y1="606.7" x2="1428.4" y2="614.8" gradientUnits="userSpaceOnUse">
      <stop offset="0" stop-color="#972c54"/>
      <stop offset=".9" stop-color="#88193a"/>
    </linearGradient>
    <clipPath id="clippath-22">
      <path class="st41" d="M1270.1,558.4s20.1,16.8,83.3,16.1c0,0,77.9,84.7,80.4,182.2,0,0-13.4-82.7-89.8-129.8l-73.9-68.5Z"/>
    </clipPath>
    <clipPath id="clippath-23">
      <rect class="st41" x="1265.1" y="553.4" width="173.7" height="208.3"/>
    </clipPath>
    <linearGradient id="linear-gradient2" x1="931" y1="903.4" x2="969.7" y2="1054.6" gradientUnits="userSpaceOnUse">
      <stop offset="0" stop-color="#9f3f62"/>
      <stop offset=".7" stop-color="#8b203c"/>
    </linearGradient>
    <linearGradient id="linear-gradient3" x1="1426.8" y1="462.3" x2="1563.8" y2="462.3" gradientUnits="userSpaceOnUse">
      <stop offset="0" stop-color="#ab2a3b"/>
      <stop offset=".8" stop-color="#660018"/>
    </linearGradient>
    <linearGradient id="linear-gradient4" x1="1262.9" y1="340.3" x2="1315.5" y2="361.6" gradientUnits="userSpaceOnUse">
      <stop offset=".4" stop-color="#c1363f"/>
      <stop offset=".8" stop-color="#971d39"/>
    </linearGradient>
    <clipPath id="clippath-24">
      <path class="st41" d="M1434.8,312.6l15.8-19.3s29.3,10.3,28.1,25.7l-16.5,13.4-27.3,2.3v-22.1Z"/>
    </clipPath>
    <clipPath id="clippath-25">
      <rect class="st41" x="1429.8" y="288.3" width="53.9" height="51.4"/>
    </clipPath>
    <linearGradient id="linear-gradient5" x1="1434.1" y1="390.9" x2="1489.9" y2="379.4" gradientUnits="userSpaceOnUse">
      <stop offset="0" stop-color="#720820"/>
      <stop offset=".6" stop-color="#470514"/>
    </linearGradient>
    <linearGradient id="linear-gradient6" x1="1470.9" y1="684.9" x2="1580.1" y2="646.9" gradientUnits="userSpaceOnUse">
      <stop offset=".1" stop-color="#5f042d"/>
      <stop offset=".7" stop-color="#370119"/>
    </linearGradient>
    <linearGradient id="linear-gradient7" x1="1528" y1="720.3" x2="1636.4" y2="720.3" gradientUnits="userSpaceOnUse">
      <stop offset=".3" stop-color="#440321"/>
      <stop offset="1" stop-color="#650b2f"/>
    </linearGradient>
    <linearGradient id="linear-gradient8" x1="1434.8" y1="557.8" x2="1636.4" y2="557.8" gradientUnits="userSpaceOnUse">
      <stop offset="0" stop-color="#b12b43"/>
      <stop offset=".5" stop-color="#aa2749"/>
      <stop offset=".9" stop-color="#660018"/>
    </linearGradient>
    <linearGradient id="linear-gradient9" x1="1306.9" y1="701.3" x2="1386.6" y2="677.4" gradientUnits="userSpaceOnUse">
      <stop offset=".1" stop-color="#8c1d28"/>
      <stop offset=".8" stop-color="#a73446"/>
    </linearGradient>
  </defs>
  <image width="2005" height="1325" transform="translate(3399.4751 -1400.3498) scale(.5441)" xlink:href="Fox  illustration-1.png"/>
  <image width="2005" height="1325" transform="translate(103.8 256.3) scale(.5)" xlink:href="Fox  illustration-2.png"/>
  <image class="st77" width="1920" height="1920" transform="translate(339.3 269) scale(.4)" xlink:href="magnific_create-a-premium-hero-web_2964305641.jpeg"/>
  <g class="st77">
    <g>
      <path class="st57" d="M954.3,948.6c-.5.4-1.4.6-1.9,0h1.9Z"/>
      <path class="st57" d="M786.3,776.4c.1-.1.3-.3.5-.4,0,.2-.3.3-.5.4Z"/>
      <g>
        <path class="st69" d="M901.9,609.5c1.5.3,3,1,4.5,1.8l7,3.9c.9.5,1.1.9,2.3,1.2,1.9.6,3.7,1.9,5.4,2.9-.2,1,1.3,1.4,1.1,3.2.5-.1,1-.3,1.2-.2s.5.6.8.8l4.6,3.4c1.8,1.4,3.2,2.9,5.2,4.1s2.8,2,4.6,2.5l1.3,1.3c1.8.8,2.8,2.2,4.4,3.1l2.9,1.7,4.4,2.9,3.7,2.2,3.8,3,8.9,7.6,6.4,5.6c2.4,2.1,4.6,4.1,6.5,6.7,1.7,1.1,3.1,2.6,4.2,4.4l2.3,3.6c-.4.2-.9.3-1.2.6l-3.7-1c-1-.3-2.2-.9-3.2-1l-4.8-1.3-11.8-2.2c-.4,4.8.3,9.6.8,14.6,1.2,10.8,3.8,20.9,8.2,30.8,3.5,7.8,8.1,14.7,13.7,21.2l4.3,4.6,5.8,5.2c12,10.8,32.8,18.7,49.1,20.6l13.2,1.5h.7s.4,0,.4,0l.8.2v129.1c-.5,0-.8.2-1.2.6l-5.4,5.4c-.7-.7-.3-1.7-.5-2.6l-2.3-14-1.7-6.9-3.8-12.6c-.3-.9-.5-1.8-1.2-2.1,0-.5,0-1.3-.4-1.8.2-.8.4-1.7.2-2.5-.6,0-1,.1-.9,0,.9-1.2-.5-3.9-1.8-6.3s-1.1-3.5-1.9-5.3l-3.8-8.9-2.4-4.6-2.9-5.1-3.5-5.1c-1.3-1.8-2.4-3.5-4-5.1s-1.2-1.4-1.6-2.1c-.7-1.4-2-1.8-2.9-2.9s-1.7-2.9-3.4-3.8l-1.6-2.1c-2-1.4-3.5-3.2-5.1-5-2.5-2.8-5.1-5.1-7.9-7.5l-2-1.7-2.1-2.1c-.8-.8-1.6-1.6-2.6-2.3l-3.2-2.4c-2.5-1.2-4.8-2.4-6.6-4.7-1.9-.3-3.5-1-4.7-2.4-1.2,0-2-.7-2.9-1.2l-7.4-3.8c-1.2-.6-1.8-1-2.9-1.3l-7.9-2.7c-.9-.3-1.5-1.2-2.8-.9s-2.3-1.2-3.3-1.4l-2.5-.5c-.3,0-.6-.6-1.1-.5s-.5.4-.7.9l-12.2-4.2-1.7-.8-14.5-3.9c0-.2-.3-.3-.5-.3h-.9c-.5-.6-1.4-.5-2.1-.6l-12.2-2-4.8-.6c-1.2-.1-2.5-.7-3.4,0-12.2-1.5-24.5-2-37.1-.8l11.8,5.9c10.6,6.3,20.5,13.4,29.4,22l1.4,1.2c6.6,5.9,12.2,12.6,17.8,19.4l6.7,8.3,19.1,26.2,12.2,15.9,7.5,9,9.7,9.7,4.5,4.1,4.9,4,5.9,4.3c7,5.1,14.7,8.8,22.8,12.1l10.2,3.3c9.1,3.1,18.6,4.4,28.2,3.4.1-.4.4-.5.5-.6.3-.2.5,0,.4.4l-6.4,5.1c-8,6.4-16.3,11.7-25.5,16.5-9.9,5.2-20,9.4-30.7,12.8l-3.7,1.2-14.7,3.6-7.1,1.5c-.1,0-.3,0-.4,0l-4.4.7c-1.1.2-2.2,0-3,.6h-1.9s-10.6.9-10.6.9l-25-.2-7.9-.8c-23.3-2.8-45.7-9.6-66.6-20.2l-5.6-2.9c.1-.2.2-.4,0-.6-4.8-7.2-8.9-14.7-12-22.8l-4-12.6c-4.3-13.6-5.3-36.5-3.2-51,1.4-9.8,3.5-19.1,6.9-28.5,5.4-15,13-28.8,22.5-41.5l8.5-10.5c-7.8.5-15.4,1.5-22.9,2.9-.3,0-.7,0-1.2-.2-.2-1.2.3-2.3.3-3.4v-.6s0-.8,0-.8l.9-5.9c.1-.9-.2-1.7.5-2.5,2.5-16.6,12.2-37.9,22.4-51.1l12.7-16.2,13.3-16.6,5.6-8c5.4-7.8,12.1-22.9,13.2-32.1.3.1.5-.3,0-.4v-1c1-.3.6-1.5.6-2.4v-1.5c.5-.6.7-1.7.2-2.3v-6.3c.2,0,.5-.1.8,0Z"/>
        <path class="st42" d="M836.7,925.4l-18.2-10.1-21.1-12.2c-11.6-6.7-23.4-12.2-35.8-17-9.4-3.7-18.7-6.4-28.3-8.4-7.5-1.5-15.1-2.1-22.9-2.6l-6.4-.4c-2.2-.1-4.4-.9-6.4-.3,0-.9.3-1.8.8-2.7l11.5-22.7c7-11.9,15.2-22.7,24.4-32.9l11.1-11.1c7.7-7.7,16.6-13.6,25.6-19.8s4.9-2.4,6.6-4.4c.8,0,1.6-.4,2.4-.8l5.9-3.4c.2,0,.5,0,.7,0s.4-.2.5-.4l.6-.4,4.3-1.8c11.9-5.5,24.3-9.5,36.9-12.4l1.6-.4c.2,0,.5,0,.7,0,.6.1,1.1-.1,1.6-.2,7.5-1.4,15.1-2.4,22.9-2.9l-8.5,10.5c-9.5,12.8-17.1,26.5-22.5,41.5-3.4,9.4-5.4,18.6-6.9,28.5-2.1,14.5-1.1,37.4,3.2,51l4,12.6c3.1,8.1,7.2,15.6,12,22.8s.1.4,0,.6Z"/>
        <path class="st38" d="M894.3,758.7l20.9,3.5,8.7,2.4c0,.9.8,1.9,1.8,1.6,1.4-.4,1.8.8,2.6,1.2l3,1.5,2.1,1.3,7.9,4.1c1.6.8,3.4,1.3,4.7,2.4l2.5,2c1.4,1.1,2.9,1.8,4.7,2.5l3.4,2.4c1.6.5,2.8.8,4,2.2l2.9,1.9,2.8,2.3c1.1.9,2.1.8,2.9,1.3l5.6,3.8,3.5,2.5c4,2.8,7.5,5.9,10.8,9.3l5.3,3.8,5.3,5.3c1.6,1.6,2.9,3.5,5,4.8l.9,2,6.3,6.5,2.2,3,2.3,2.6,3.5,4.3,3.9,6.3c.5.7.9,1.6,2,1.8,1.5,4.6,5.3,7.4,6.5,9.8s2.2,3.5,3.6,5.1l1.7,2.7c1.2,1.9,1.9,3.7,3.5,5.3s1.9,2.6,2.1,2.6l.9-.6c3.3,8.7,7,23.6,7.5,33l-1.5,1.6c.1-.3-.2-.6-.4-.4s-.4.3-.5.6c-9.6,1-19-.2-28.2-3.4l-10.2-3.3c-8-3.2-15.8-7-22.8-12.1l-5.9-4.3-4.9-4-4.5-4.1-9.7-9.7-7.5-9-12.2-15.9-19.1-26.2-6.7-8.3c-5.5-6.9-11.2-13.5-17.8-19.4l-1.4-1.2c-8.9-8.6-18.8-15.6-29.4-22l-11.8-5.9c12.6-1.2,24.9-.6,37.1.8Z"/>
        <path class="st78" d="M1042.7,864.3c-1.7-1.8-1.3-4.8-2.9-6.2,0,0,0-.2,0-.3.1-.6-.1-1.2-.7-1.3v-.2c0-.2-.2-.7-.3-.9l-2.8-5.5c-3.7-7.2-8.1-13.9-12.9-20.4l-2-2.6c-15.5-20.4-35.7-37.4-58.7-48.7l-9.4-4.6-6.3-2.6c.1-.5.4-.9.7-.9.4,0,.7.5,1.1.5l2.5.5c1,.2,2.2,1.7,3.3,1.4s1.9.7,2.8.9l7.9,2.7c1.1.4,1.7.8,2.9,1.3l7.4,3.8c1,.5,1.7,1.2,2.9,1.2,1.2,1.4,2.8,2.1,4.7,2.4,1.8,2.3,4.1,3.5,6.6,4.7l3.2,2.4c1,.7,1.8,1.5,2.6,2.3l2.1,2.1,2,1.7c2.8,2.4,5.4,4.7,7.9,7.5,1.6,1.8,3.1,3.6,5.1,5l1.6,2.1c1.7.9,2.3,2.5,3.4,3.8s2.1,1.5,2.9,2.9,1.1,1.5,1.6,2.1c1.6,1.6,2.7,3.3,4,5.1l3.5,5.1,2.9,5.1,2.4,4.6,3.8,8.9c.8,1.8.9,3.5,1.9,5.3s2.7,5.1,1.8,6.3.3.1.9,0c.2.8,0,1.7-.2,2.5Z"/>
        <path class="st42" d="M946.7,771l6.3,2.6,9.4,4.6c23,11.3,43.3,28.4,58.7,48.7l2,2.6c4.9,6.4,9.2,13.1,12.9,20.4l2.8,5.5c-.2.4-.1.8.3.9v.2c.1.5.3,1.1.8,1.3,0,0,0,.2,0,.3v.6c-.1.3-.5.4-.8.2l-4.2-8.5c-.1-.3-.2-.6-.7-.5v-.6c0-.8-.7-1.4-1.2-2l-.3-.3c0-.3-.2-.6-.4-.8s-.4-.6-.4-1c0-.6-.4-1.3-1.1-1.3,0-.2-.2-.5-.3-.7l-.4-.5c-12.7-21.6-36-45.1-57.8-57.4l-10-5.6-9.7-4.9-15.5-6.2c0-.4-.5-.4-.8-.4-.6,0-1.2-.2-1.8-.4,0,0-.2-.4-.2-.5s.1-.2.3-.4l12.2,4.2Z"/>
        <path class="st78" d="M1052.6,904.3l-.9.7c-.5-9.3-4.2-24.3-7.5-33l-2.1-5.5c.4.2.8-.1,1-.6.7.3,1,1.3,1.2,2.1l3.8,12.6,1.7,6.9,2.3,14c.1.9-.3,2,.5,2.6Z"/>
        <path class="st50" d="M916.9,761.8h.9c.1.1.3.3.5.4l14.5,3.9,1.7.8c-.2.2-.3.3-.3.4,0,.1.2.5.2.5l-10.5-3.2-8.7-2.4c.5-.5,1.1-.4,1.7-.4Z"/>
        <path class="st78" d="M916.9,761.8c-.6,0-1.2,0-1.7.4l-20.9-3.5c1-.8,2.3-.2,3.4,0l4.8.6,12.2,2c.8.1,1.7,0,2.1.6Z"/>
        <path class="st50" d="M1042.7,864.3c.4.4.4,1.2.4,1.8-.2.4-.6.8-1,.6l-1.2-2.8v-.3c0-.3-.3-.6-.4-.8l-1.6-3.7c.3.2.7.2.7-.2v-.6c1.6,1.4,1.3,4.4,3,6.2Z"/>
        <path class="st78" d="M900.3,623.4v-.4c.5,0,.3.5,0,.4Z"/>
        <path class="st78" d="M918.3,762.2c-.2,0-.4-.2-.5-.3.2,0,.4.1.5.3Z"/>
        <path class="st86" d="M934.5,767.8c.6.2,1.2.4,1.8.4.2.2.5.3.8.4l15.5,6.2,9.7,4.9,10,5.6c-1,2.5,2.9,2.2,3.8,5.4,1.8-.4,2.5,1.4,3.6,2s2,1,2.9,2.1l2.1,1.6c.9.7,2.3,1.4,3.8,3.3,1.4.5,2.4,1.9,3.3,3l1.7,2,6.4,5.2,2.3,2.6,6.6,6.6,1.8,1.6,2.9,3.4c1.3,1.5,2.3,2.7,3.1,4.5l1.7,2.1c.4.6,2,1,2.4,1.5l1.9,2.3c1,1.2,1.4,2.8,2.3,4.1l1,1.5c.2.3-.7,1-.7,1.5l2.7,3.7c2,2.7,3.6,5.1,5.5,7.8l2.1,3.1c.8,1.2,2.1,2.2,1.9,4,2,.7,2.3,2.3,3.2,2.5,0,.2.4.5.3.8-.4,0-.2.5.1.3l1.2,2.8,2.1,5.5-.9.6c-.1,0-1.3-1.8-2.1-2.6-1.6-1.6-2.3-3.4-3.5-5.3l-1.7-2.7c-1.4-1.6-2.6-3.1-3.6-5.1s-5.1-5.2-6.5-9.8c-1.2-.1-1.6-1.1-2-1.8l-3.9-6.3-3.5-4.3-2.3-2.6-2.2-3-6.3-6.5-.9-2c-2.2-1.2-3.4-3.1-5-4.8l-5.3-5.3-5.3-3.8c-3.3-3.5-6.8-6.5-10.8-9.3l-3.5-2.5-5.6-3.8c-.8-.5-1.8-.4-2.9-1.3l-2.8-2.3-2.9-1.9c-1.2-1.3-2.3-1.7-4-2.2l-3.4-2.4c-1.8-.6-3.3-1.3-4.7-2.5l-2.5-2c-1.4-1.1-3.2-1.6-4.7-2.4l-7.9-4.1-2.1-1.3-3-1.5c-.8-.4-1.2-1.6-2.6-1.2s-1.8-.7-1.8-1.6l10.5,3.2Z"/>
        <path class="st50" d="M1039.8,857.8c-.5-.2-.6-.8-.7-1.3.6.1.8.7.7,1.3Z"/>
        <path class="st50" d="M1039.1,856.3c-.4,0-.5-.5-.3-.9.1.2.2.7.3.9Z"/>
        <path class="st78" d="M1030.1,842.7c.1.2.2.3.4.5.1.2.3.5.3.7,0,.6.5,1.1,1.1,1.3,0,.3.2.7.4,1,0,.3.2.6.4.8l.3.3c.2.8.6,1.4,1.2,2v.6c0,.3.4.5.7.5l4.2,8.5,1.6,3.7c-.9-.2-1.2-1.8-3.2-2.5.2-1.7-1.1-2.8-1.9-4l-2.1-3.1c-1.8-2.7-3.5-5.2-5.5-7.8l-2.7-3.7c0-.5.9-1.2.7-1.5l-1-1.5c-.8-1.3-1.3-2.9-2.3-4.1l-1.9-2.3c-.5-.5-2-1-2.4-1.5l-1.7-2.1c-.8-1.8-1.8-3-3.1-4.5l-2.9-3.4-1.8-1.6-6.6-6.6-2.3-2.6-6.4-5.2-1.7-2c-1-1.1-2-2.5-3.3-3-1.5-1.9-2.8-2.6-3.8-3.3l-2.1-1.6c-.9-1.1-1.7-1.4-2.9-2.1s-1.7-2.4-3.6-2c-.9-3.2-4.8-2.9-3.8-5.4,21.8,12.3,45.1,35.8,57.8,57.4Z"/>
        <path class="st50" d="M1031.9,845.1c-.6-.2-1-.6-1.1-1.3.7,0,1,.6,1.1,1.3Z"/>
        <path class="st50" d="M1032.7,846.9c-.2-.2-.4-.5-.4-.8.2.2.4.5.4.8Z"/>
        <path class="st50" d="M1034.2,849.2c-.5-.6-1-1.2-1.2-2,.5.6,1.1,1.2,1.2,2Z"/>
        <path class="st50" d="M937.1,768.6c-.3-.1-.6-.1-.8-.4.3,0,.7,0,.8.4Z"/>
        <path class="st50" d="M1034.9,850.4c-.3,0-.7-.2-.7-.5.5,0,.5.2.7.5Z"/>
        <path class="st50" d="M1030.4,843.2c-.2-.1-.3-.3-.4-.5l.4.5Z"/>
        <path class="st78" d="M1041,863.7c-.3.2-.5-.2-.1-.3v.3Z"/>
      </g>
      <g>
        <path class="st36" d="M688.1,898.8c-1.4,4.9-5.7,23.1-4.3,23.1s.4-.1.7-.3c0-.7.6-1.9,1.5-1.9,1,.7,2.1,2.2,3.6,2.1h2.3c1.2,0,2,.4,3,.3,1.5,0,2.8-.6,4.3,0s2.1-.1,2.8-1.1c1.5,1.7,3.5,0,5.7,1.7l1.9-2.3c2.4.9,4.4-.5,5.7-2.2s3,.5,4,.5c1.9,0,3.9-.4,5.7,0s2-.9,2.7-1.1c2.6.8,4.1-1.5,6.7-.6.8,0,1.7-.7,2.3-1.1-1.5-5.1-2.6-10-3.2-15-1-7.7-1.2-15.5-.2-23.3,9.7,2,19,4.7,28.3,8.4,12.5,4.9,24.3,10.3,35.8,17l21.1,12.2,18.2,10.1,5.6,2.9c20.9,10.6,43.3,17.4,66.6,20.2l7.9.8,25,.2,10.6-1c.5.6,1.3.5,1.9,0,.8-.7,1.9-.4,3-.6l4.4-.7c.2.2.4.4.6.5s.6-.1.5-.3l-.8-.2,7.1-1.5c.3.1.8.4.7.7-.2.9-1.5.3-1.9.7s-.1,1.7-.7,2.3-.9.5-1.6.4l-.4,1.9c-.5.4-1,1.6-.2,1.9,1.4.5,3-.2,4.5-.7.6,1.7.2,3.5-.2,5.3.7.7,2,.4,2.6.7,2.2,2.2,3.5-.1,5,1.8s-1.2,4.5-.8,5.2.6.4.9.1.3-.5.5-1.2c.6.3,1.8.7,2.2,1.3,1.6,3,2,6,1.2,9.4,3.8,3.4,1.3,4.9,2.2,5.9s1.2,1.3,2.2.5.5-.6.8-.5c.6.3.6,1.4,1,1.8s2.3.4,2.7.1-.4-2.6,1.2-3.3,1.5.2,2.3.8l3.9.9c1.1.3,1.6,1.2,1.5,2.2-.5,2.6-4.2,0-4.2,2.8l-.2,2.3h-195.9c0-.7-.5-.7-1.1-1.1-9.3-5.2-18-11.2-26-18.2l-4.7-4.1-4.1-4.5c-.2-.3-.6-.7-.9-.5l-.8.6-2.9-3.4-4.4-6c-.5-.6-.5-1.5-1.7-1.4.8,1,.7,1.8,1.1,2.8s1.1.5,1,.8l-.5,1.2c0,1.4-2.7,3.9-5,5s-1.2,1.9-2.5,1.4c.1,1.4.9,1.2,1.5,1.8s.6,2.5-.2,2.9c-.3,0-1.1-.4-1.3-.3-.6.3-1,1.9-1.6,1.8l-1.6-.5-.7,2.4c-.8-.7-2.5-1.3-3-.4s-1.1,1.8-1.7,1.4-1-1.5-1.6-1.2c-.9,1.2-2.1,2.6-3.7,2.7.3-.8.6-1.3.4-1.8-.3-.8-3.9-2.1-5.2-1.2,0,.6.2,1.6-.1,2s-2.6.5-2,1.3l.5.8c.5,1.8-2.2,3.1-1.9,4.7s.8.7,1.5,1.1c-.6.6-1.2.9-1.1,2-.4-.3-1.4-.9-2-.5-2.7,1.7-.9,5.7-2.5,5.8s-1.1-2.4-2.6-2.5c-2.5-.2-4,1.8-4.6.3s1.7-1.4,1.4-2.1-1.9.2-2.6-1-.8-.7-1.2-.5c-1.3.4.3,3.6-1.8,4.2s-2.2.2-2.9-.9c-1.9-2.6-5.3-4.3-8.5-3.2l-1.2.8c-.2,0-2.5-1.3-5-1-.3.4-.6,1-1,.9-1.2-.3,0-3.7-2.5-3.7-2.4-8.1-4.1-17-4.8-25.7l-.2-18.8c0-2.3-2.6.5-5.3,1.1-.3-1.4-1.1-2.3-2.1-2.9-.4-2.5-2.8.3-5.1-2.4s-.9,0-1,.2.1.8.1,1.2l-.9,4.5c-1.3.4-2.5,1.6-3.9,1.7-2.7,0-4.1-1.5-5.2-.9s-2.3-.7-3-.7c-1,0-1.8,1.1-3.1.5s-2.5-3.5-4.7-2.9-2.2-.4-3.3-1.3-1.5-.2-1.4-1.3-1.3-1.6-1.8-3.5-.5-.3-.7-.1c8.4-18.7,21.7-35.6,40.6-44.8,1,0,1.6-.7,2.3-1,4.1-1.9,8.1-3.3,12.9-4.4l-4.6,11.2-3.9,11.6ZM736.6,917v.2s0,.3,0,.3v.2s0-.2,0-.2v-.5ZM737,918.1v.2s0,.3,0,.3v.2s0-.2,0-.2v-.5ZM737.8,921.2c.2-1-.2-1.3-.5-1.9-.4.6-.3,1.5.5,1.9ZM738.1,921.5v.2s0,.3,0,.3v.2s0-.2,0-.2v-.5ZM738.5,922.6v.2s0,.3,0,.3v.2s0-.2,0-.2v-.5ZM750.8,947.5l-2.1-3.4c-.1,0-.3.2-.2.1.2,1.3,1.2,3.3,2,3.5l.3-.3ZM751,947.6l-.3.3c.3.6.4,1.2,1,1.7.4-1.2-.4-1.6-.8-2ZM963.5,955.6c-1.1,0-2.5-.6-2.7-1.5-.5-1.9.7-3.6,1.8-4.8-.1-1.5-1.8.3-2.8-1.4-.5.8-.6,1.7-.6,2.7l-1.3,1c1.5.9,2.2,2.1,2.2,3.8,1.3.3,2.2.8,3.2,1.5.4-.4.6-.9.3-1.3ZM980.1,975.1c-.2-1-.6-1.4-1.2-1.3s-.9.5-1,.8c-.1.6.1.9.7,1.4s.9.6,1.4.3.2-.6.1-1.2ZM996.9,982.1l-.6.7,1.1.9.6-.7-1.1-.9ZM993.4,983.8c-.4.5.2.8.4.7s.4.1.6-.2,0-.5-.2-.5c-.2,0-.7,0-.8,0Z"/>
        <path class="st57" d="M1059.3,898.3v44c-.8-.1-1.1.7-1.6,1.2l-4.2,4.5-9,9-9.7,8.4c-11.4,9-23.3,16.9-36.1,23.3l-.7.4h-3.5s.2-2.3.2-2.3c0-2.8,3.7-.2,4.2-2.8s-.3-1.9-1.5-2.2l-3.9-.9c-.8-.6-1.3-1.2-2.3-.8-1.7.8-.6,3-1.2,3.3s-2.2.4-2.7-.1-.4-1.5-1-1.8-.6.3-.8.5c-1,.8-1.8,0-2.2-.5-.9-1,1.6-2.5-2.2-5.9.8-3.4.5-6.4-1.2-9.4-.4-.6-1.6-1-2.2-1.3-.2.7-.3,1-.5,1.2-.3.2-.7,0-.9-.1-.4-.7,1.9-3.9.8-5.2s-2.8.4-5-1.8c-.6-.3-1.9,0-2.6-.7.4-1.8.8-3.6.2-5.3-1.5.5-3.1,1.2-4.5.7s-.3-1.4.2-1.9l.4-1.9c.7,0,1.3,0,1.6-.4.6-.6.1-1.9.7-2.3s1.7.3,1.9-.7-.4-.6-.7-.7l14.7-3.6,3.7-1.2c10.7-3.4,20.8-7.6,30.7-12.8,9.2-4.8,17.5-10.1,25.5-16.5l6.4-5.1,1.5-1.6.9-.7,5.4-5.4c.4-.4.8-.6,1.2-.6ZM1020.8,948l4.3-2.9c-1.6-.5-2.7-1.5-3.9-2.3-4.3-2.7-4.3-7.4-5.5-6.7s-1.6,5.8-7.6,8.4-1,1.1-.5,1.3c4.2,1.6,6.5,4.8,8.6,9.2,1.1-3,1.9-5.3,4.5-7Z"/>
        <path class="st57" d="M687.3,977.7c.3,1.3.7,2.5,1.1,3.8l2.3,6.7c0,.2.1.3.3.4v.4s-59,0-59,0c-2.2-19.9.5-44.6,8.7-62.9.3-.2.7,0,.7.1.5,1.9,2,1.9,1.8,3.5s1,1,1.4,1.3c1.1.9,1.7,1.7,3.3,1.3s2.9,2.1,4.7,2.9,2.1-.4,3.1-.5c.7,0,1.8,1.3,3,.7s2.5.9,5.2.9,2.6-1.2,3.9-1.7l.9-4.5c0-.4-.3-.8-.1-1.2s.7-.5,1-.2c2.3,2.7,4.7,0,5.1,2.4,1,.6,1.8,1.4,2.1,2.9,2.7-.6,5.3-3.4,5.3-1.1l.2,18.8c.7,8.8,2.4,17.6,4.8,25.7Z"/>
        <path class="st61" d="M766.9,965.7c-1.3,1.2,1.8,3.9,4.3,5.8l10.5,8.3,12.5,8.2c.4.3.2.8,0,1h-103.1v-.4c0-.2-.2-.3-.3-.4l-2.3-6.7c-.5-1.3-.9-2.5-1.1-3.8,2.6,0,1.3,3.4,2.5,3.7s.7-.6,1-.9c2.4-.3,4.8,1.1,5,1l1.2-.8c3.2-1.1,6.6.6,8.5,3.2s2,1.1,2.9.9c2-.6.5-3.8,1.8-4.2s.9,0,1.2.5c.7,1.2,2.3.4,2.6,1s-1.9.9-1.4,2.1,2.1-.5,4.6-.3.8,2.6,2.6,2.5-.1-4.2,2.5-5.8,1.6.2,2,.5c-.1-1.2.4-1.5,1.1-2-.7-.4-1.4-.7-1.5-1.1-.4-1.6,2.4-3,1.9-4.7l-.5-.8c-.5-.8,1.7-.7,2-1.3s.1-1.4.1-2c1.3-.8,5,.4,5.2,1.2s0,1-.4,1.8c1.6,0,2.7-1.5,3.7-2.7.7-.3,1.2.9,1.6,1.2s1.4-.7,1.7-1.4,2.2-.3,3,.4l.7-2.4,1.6.5c.6.2,1-1.4,1.6-1.8s1,.3,1.3.3c.8-.4.9-2.3.2-2.9s-1.4-.4-1.5-1.8c1.3.5,1.8-1,2.5-1.4,2.3-1.1,5-3.6,5-5l.5-1.2c.1-.2-.9-.5-1-.8-.4-.9-.3-1.8-1.1-2.8,1.2,0,1.3.8,1.7,1.4l4.4,6,2.9,3.4.8-.6c.3-.2.7.2.9.5l4.1,4.5ZM758.2,960.5c.5-.4.4-1,.2-1.1s-.6-.1-.7,0-.1.5,0,.9c-.5.7.5,1.1.6.3ZM735.7,972.4c0,.6.4.6.6.5s.3-.3.2-.6-.5-.4-.8,0Z"/>
        <path class="st86" d="M697.4,874.3c2-.6,4.2.2,6.4.3l6.4.4c7.8.5,15.5,1.1,22.9,2.6-1,7.8-.9,15.6.2,23.3-.6,1.1-1.6-.4-3.6-.4l-11.6.4-4.6.2c-.9,0-2.4-1.5-3.6,0s-2.3-1.3-2.9-1l-1.6.8c-1.6-.7-2.7-2.2-4.5-2.2l-1.3,1.5c-1.3,0-1.9-.9-2.9-1.6-2.2-1.6-5.8.7-8.7.2l3.9-11.6,4.6-11.2c-4.7,1.1-8.8,2.4-12.9,4.4s-1.3,1.1-2.3,1c-18.9,9.1-32.2,26-40.6,44.8-8.2,18.3-10.9,43-8.7,62.9h-2.1c.5-1.6,0-3.3,0-5.1v-12.2c0-15.8,3.1-31.4,9.2-45.9,8.1-19.5,23.5-37.6,42.6-46.2,4-1.8,8.2-3,12.5-4.3l3.2-.9Z"/>
        <path class="st57" d="M1059.3,944.8v44.2h-56.2v-.6c10.8-5.6,20.9-12.5,30.7-20.1,6.6-5.1,12.7-10.2,18.3-16.3l6.8-7.4h.6Z"/>
        <path class="st86" d="M1059.3,942.3v2.1c-.1.1-.4.2-.6.3l-6.8,7.4c-5.6,6.1-11.7,11.2-18.3,16.3-9.8,7.6-19.9,14.5-30.8,20.1-.3.2-.8.2-1,.6h-3.2v-.4c12.9-6.4,24.8-14.3,36.1-23.3l9.7-8.4,9-9,4.2-4.5c.5-.5.8-1.4,1.6-1.2Z"/>
        <path class="st86" d="M798.6,989h-4.4c.2-.2.3-.7,0-1l-12.5-8.2-10.5-8.3c-2.5-2-5.7-4.6-4.3-5.8l4.7,4.1c8,7,16.7,13,26,18.2.6.4,1.2.4,1.1,1.1Z"/>
        <path class="st92" d="M1003,988.4v.6c.1,0-1,0-1,0,.2-.4.7-.4,1-.6Z"/>
        <path class="st92" d="M1059.3,944.8h-.6c.2-.1.4-.3.6-.4v.4Z"/>
        <polygon class="st54" points="998.7 989 998.1 989 998.7 988.6 998.7 989"/>
        <path class="st57" d="M961.8,947.3c.2,0,.3,0,.4,0l.8.2c0,.2-.4.4-.5.3s-.4-.3-.6-.5Z"/>
        <path class="st61" d="M733.3,900.9c.7,5,1.7,10,3.2,15-.6.4-1.6,1.2-2.3,1.1-2.5-.9-4,1.3-6.7.6-.7.2-1.6,1.4-2.7,1.1-1.8-.5-3.8,0-5.7,0s-2.9-1.9-4-.5-3.3,3.1-5.7,2.2l-1.9,2.3c-2.2-1.7-4.2,0-5.7-1.7-.6.9-1.8,1.5-2.8,1.1-1.5-.7-2.9,0-4.3,0s-1.8-.4-3-.4h-2.3c-1.4,0-2.6-1.4-3.6-2.1-.9,0-1.6,1.2-1.5,1.9-.3.2-.5.3-.7.3-1.4,0,2.9-18.2,4.3-23.1,2.9.5,6.4-1.8,8.7-.2s1.6,1.5,2.9,1.6l1.3-1.5c1.8,0,2.9,1.5,4.5,2.2l1.6-.8c.6-.3,2.2,1.8,2.9,1,1.2-1.5,2.6,0,3.6,0l4.6-.2,11.6-.4c2,0,3,1.5,3.6.4Z"/>
        <path class="st57" d="M963.5,955.6c.3.4.2.8-.3,1.3-1-.7-1.9-1.2-3.2-1.5,0-1.7-.7-2.9-2.2-3.8l1.3-1c0-1,.2-1.9.6-2.7,1,1.6,2.7-.2,2.8,1.4-1.1,1.2-2.3,2.9-1.8,4.8s1.6,1.5,2.7,1.5Z"/>
        <path class="st57" d="M980.1,975.1c.1.6.1,1.1-.1,1.2-.5.3-.9,0-1.4-.3s-.8-.7-.7-1.4.4-.8,1-.8,1,.3,1.2,1.3Z"/>
        <path class="st61" d="M750.5,947.8c-.8-.2-1.8-2.2-2-3.5,0,0,.1,0,.2-.1l2.1,3.4c0,0,0,.1.1.1.3.4,1.2.8.8,2-.6-.5-.7-1.1-1-1.7,0,0-.1-.2-.2-.2Z"/>
        <rect class="st57" x="996.7" y="982.2" width=".9" height="1.4" transform="translate(-393.2092 1147.9768) rotate(-51.3576)"/>
        <path class="st61" d="M737.8,921.2c-.8-.4-.9-1.2-.5-1.9.3.6.7.9.5,1.9Z"/>
        <path class="st57" d="M993.4,983.8c0-.1.6-.1.8,0s.4.3.2.5-.4.2-.6.2c-.3,0-.8-.2-.4-.7Z"/>
        <polygon class="st61" points="738.5 922.6 738.5 922.9 738.5 923.1 738.5 923.4 738.5 923.1 738.5 922.9 738.5 922.6"/>
        <polygon class="st61" points="738.1 921.5 738.1 921.8 738.1 922 738.1 922.3 738.1 922 738.1 921.8 738.1 921.5"/>
        <polygon class="st61" points="736.6 917 736.6 917.3 736.6 917.5 736.6 917.8 736.6 917.5 736.6 917.3 736.6 917"/>
        <polygon class="st61" points="737 918.1 737 918.4 737 918.6 737 918.9 737 918.6 737 918.4 737 918.1"/>
        <path class="st36" d="M1020.8,948c-2.6,1.7-3.4,4-4.5,7-2.1-4.4-4.4-7.6-8.6-9.2s0-1.1.5-1.3c5.9-2.6,6.7-7.9,7.6-8.4,1.2-.7,1.2,4,5.5,6.7s2.3,1.7,3.9,2.3l-4.3,2.9Z"/>
        <path class="st67" d="M691.1,988.6c-.2,0-.2-.2-.3-.4.1.1.2.3.3.4Z"/>
        <path class="st36" d="M758.2,960.5c0,.8-1.1.4-.6-.3,0-.4,0-.8,0-.9s.6,0,.7,0c.2.1.3.7-.2,1.1Z"/>
        <path class="st36" d="M735.7,972.4c.3-.5.7-.2.8,0s0,.4-.2.6-.7,0-.6-.5Z"/>
      </g>
    </g>
    <polygon class="st86" points="1059.3 768.1 1059.3 769.1 1058.6 768.9 1058.6 768.1 1059.3 768.1"/>
    <path class="st78" d="M831.7,757.2c0,1.1-.5,2.2-.3,3.4.5.1.8.1,1.2.2-.5,0-1,.3-1.6.2,0-1.3-.4-2.6,0-3.8h.7Z"/>
    <path class="st61" d="M1058.6,768.1v.8s-.4,0-.4,0c0-.4,0-.9.3-1.1,0,.1,0,.3,0,.4Z"/>
    <path class="st78" d="M831.7,756.5c-.3,0-.4-.3-.3-.5s.2-.3.3-.3v.8Z"/>
    <path class="st78" d="M772.4,613.7c.1.4,0,.9-.3,1l-1.3.4c-.5.1-.8.4-1.2.4s-.7-.3-.6-.9l3.4-.9Z"/>
    <path class="st50" d="M950,481.4c-2.9,4.9-5.1,10.1-6.6,15.6-2.6,5-4,10.4-5.3,16-5.5,24.1.6,47.5,16.8,65.9l6.2,6.3,8.9,6.7,5.9,3.2c3.3,1.8,1.7,6,4.2,10.7s2,4.3,2.6,6.8c2.5.8,4.8-.5,4.6,1h-12.5s7.3,6,7.3,6l8.5,7.2,11.3,9.6,6.3,5.3,4.6,4.3,5.2,5.2,11.8,11.8,5.4,5.9,7.5,9,9.7,12.8,6.3,9.3c.3,0,.4.2.6.4v3.4c-.8-.1-.8-.7-1.2-1.3-7.5-12.3-16-23.7-25.5-34.4l-10.4-11.1-11.7-11.2c-10.1.8-19.7,1.1-29.3-.5,0-.3-.1-.7-.7-.8l-7.1-1.4-9.9-2.7c-1.9-.5-3.9-.8-4.7-3.1s-1.6-2.6-3-3.8-.8-2-1.7-2.2c-.1-.4,0-1.5-.5-1.7-2.3-1.6-2.9-4.5-6.6-6.7-.3-3.1-2.4-4.6-4.1-6.8s-1.1-3.8-2.7-4.8c-.3-4.2-1.7-4.4-2.7-5.3l-3.2-2.7c-1.2-1.8-3-2.8-5.3-3-.7-2.1-2.2-3.5-4.6-3.3l-6.7-6c.5-2.2-1.3-3.8-1.7-6.6.7-1.2.6-2.5-.4-3.5,1-1.8,0-3.2-.2-5l-.4-4,.8-2.6c-1.4-1.6-1-3.4-.3-5l1-2.3c.5-1.1,1-2.7.8-3.9l-.9-5.9c2.5-1.3,3.4-4,2.8-7,2.5,0,4.1-1.4,4.7-3.5,2.4-1.9,2.8-4.7,3.1-7.6s1.1-1.4.7-2.5-2.1-1.5-2.7-3.7.9-1.1,1-1.8c.1-2.3.2-4.8-.3-7s.6-3.9,0-7.8-.1-2.6.3-4.4l.8-3.7c.3-1.2,0-2.4,1-3.5.2-.7-1.5-1.3-2.3-1l5.6-4.7c1.7-1.4,3.2-3,5.2-3.8.3,0,.4-.4,0-.5l11.6-9.3c.3.4,1.1.7,1.7.9Z"/>
    <path class="st86" d="M1033.9,552.7c-4.4.8-8.9,1.5-13.6,1.3-3.5.9-6.8-.5-6.7,1.4l-7-.6h-.5c-3.2-.4-6.4-1.3-9.9-.8l17.5,2.9,17.6,2.1c.2.2.4.4.7.3,1.6-.3,2.8.2,4.1.3,0,.4.1,1.5-.3,1.7l-3.6,1.8c-1,2.2-.8,5.1,1.4,6.6s1.3,0,1.4.4v1.5c1,1.2,1.2,2.8,1.2,4.3.9.3,2.6.4,3.1,1.2s.7,2.1.4,3.3.9.9,1,1.3l1.4,6.1,1.2,3c1.1,2.7.6,4.7,1.2,5.9s1.4,1,1.3,2c-.3,2.2-2.3,2.7-2.1,3.4.9,2.2-.1,3.6-1.5,5l-2.4,2.4c-1.7,1.7-2.7,4-5.4,4.1-.6.5-1.1,1.6-1.1,2.6,7.2,3.5,14.8,5.9,22.6,8.4s2.4,1,3.6,1v12.4c-.7,0-1.2-.1-1.9-.5l-28.8-13.9-.2-2.9c0-.5,1.2-1.1,1.1-1.5l-.5-1.6c-.2-.7,1.9-1.8,1.4-2.7s-.5-.5-1.2-.2-.6-.8-.9-.9c-7.5-4-14.7-8.4-20.6-14.6l-4.4-4.6c-8.3-8.6-14.2-19.1-17.7-30.5-1.2-4-2.4-7.8-2.8-11.6-1-10.5-1.5-21-1.1-31.7l.3-9.3c.5.8.3,1.5.2,2.3l1.4-.4c-.5.1,3.8,1.8,4.2,3.3s.5,3.2,1.3,4.4,1.4,1,1.4,1.9-.1,1.4-.6,2.2c-.7,1.1.5,1.7,1.2,2.2,1.4.9,1,3,1.1,4.5l3.2,2.9c1.7,1.5,4.4,2,6.4,1.6l5,4.9c1.5.4,2.7,1.3,3.4,2.7,1.5.1,2.9.5,3.9,1.7,1.8-.6,2.7.4,4,1l3.9,1.8,5,2.2,5.9,1c.3,0,.7-.1,1,.3s.2.5.2.9Z"/>
    <path class="st78" d="M981.3,645.4c9.6,1.6,19.2,1.3,29.3.5l11.7,11.2,10.4,11.1c9.5,10.7,18,22.1,25.5,34.4.4.6.4,1.2,1.1,1.3v47.8c-.2.1-.6.1-.8,0s-.1-.4-.2-.8c-2.5-13.7-6.3-26.9-11.8-39.6l-5.9-12.4-5.2-9.7c-.8-1.4-1.1-1.9-2.8-2.3s-2.1-1.3-3.2-1.1-2.1-1-3.1-1.3l-10.1-2.8c-2.7-.7-5.5-1.5-7.7-3.1l-6.2-4.4c-1-.7-1.9-1-2.8-1.8l-2.6-2.5-3.3-3.1-4-3.6c-.6-.5-1.2-.7-1.7-1.4-1.2-1.8-3.8-2.4-5.2-4l-5.9-6.9-1.9-2.3c-1.5-1.3-3.2-2.6-3.1-4.8l9.6,1.6Z"/>
    <path class="st61" d="M987.3,613.7c7.4,0,14.7,1.3,21.8,3,0,.9.3,1.5.8,1.9s1.3.4,2.2-.2c0,1.5,1.2,1.4,1.9,2s1.6,1.8,2.6,2.2c.4,2,2,3.2,3.6,4.3l3.9,5,1.7,1.4c.4,1.7,1.1,3.1,2.5,4.2v2.5c1.4,2.9,1,6-1,8.8,6.3,1.7,12.6,1.5,19,1.1s2.3,2,2.4,3.1l.8,6c.3,2.4.6,5.6,2.3,7.4s1.8.6,2.3,2,1.5,1.2,1.3,2.3,2,3.5,3.6,3.3v26.1s-.6,0-.6,0l-6.3-9.3-9.7-12.8-7.5-9-5.4-5.9-11.8-11.8-5.2-5.2c.5-.9,1.6-.6,2.8-.8l-7.2-3.8c0,0-.2.2-.2.4l-6.3-5.3-11.3-9.6-8.5-7.2-7.3-6h12.5ZM1016.2,645.4c.2.3.5,0,.2-.2l-.2.2ZM1016.7,645.9l.2-.2c-.2-.3-.5,0-.2.2Z"/>
    <path class="st50" d="M971.7,643.9c-.1,2.2,1.6,3.5,3.1,4.8l1.9,2.3,5.9,6.9c1.4,1.6,4,2.2,5.2,4s1.1.9,1.7,1.4l4,3.6,3.3,3.1,2.6,2.5c.9.9,1.8,1.1,2.8,1.8l6.2,4.4c2.2,1.6,5.1,2.3,7.7,3.1l10.1,2.8c1,.3,1.7,1.5,3.1,1.3s2.4,1,3.2,1.1c1.8.3,2.1.9,2.8,2.3l5.2,9.7,5.9,12.4c5.5,12.8,9.3,25.9,11.8,39.6,0,.4,0,.6.2.8s.6.1.8,0v16.5h-.8c0-.1,0-.3,0-.4l-9.3-27.4c-3.3-8.2-6.9-15.8-11.7-23.2s-7.8-11.5-12.8-16.5l-4.9-4.9c-7.2-7.2-15.9-12.5-25.1-16.7,0-.7-.3-1.2-.8-1.6l-4.1-4.2-12.9-12.5-4.4-4-6.1-5.2-7-5.8-5.8-4.3c-2.3-1.7-4.6-3.3-6.2-5.5l9.8,3.9,14.3,3.9Z"/>
    <path class="st61" d="M1059.3,560v65.4c-1.2,0-2.3-.6-3.6-1-7.7-2.4-15.3-4.8-22.6-8.4,0-1,.5-2,1.1-2.6,2.7,0,3.7-2.4,5.4-4.1l2.4-2.4c1.4-1.4,2.3-2.8,1.5-5s1.8-1.2,2.1-3.4-.9-1.3-1.3-2c-.7-1.1-.2-3.2-1.2-5.9l-1.2-3-1.4-6.1c0-.3-1.1-.7-1-1.3.3-1.1.2-2.3-.4-3.3s-2.2-.9-3.1-1.2c0-1.5-.2-3.1-1-4.3v-1.5c-.2-.3-1.2-.1-1.5-.4-2.1-1.5-2.3-4.4-1.4-6.6l3.6-1.8c.4-.2.3-1.3.3-1.7l23.2.5Z"/>
    <path class="st78" d="M1006,504.2l5.4,7.3c1.3,1.8,3.4,2.7,5.2,3.8s2.6,1.1,4,1.3c6.9,1.1,18.5-3.6,24.7-7.2,0,1.3.6,1.7,1.7,2.1,1.7.6,1.4,3.2,2.2,4.6l-6,3.4c-5.6,3.1-11.3,5.6-17.5,7.3l20.2,17.5,5.5,4.7,5.4-1.3c.9-.2,1.7-.3,2.4,0v12.3s-23.2-.5-23.2-.5c-1.3,0-2.6-.5-4.1-.3s-.4-.1-.7-.3l11.6-.6-9.8-1.1-9.8-.8-9.7-1c0-1.9,3.3-.4,6.7-1.4,4.7.2,9.2-.5,13.6-1.3l10.4-1.8-15.3-13-19.6-17.9-7.9-7.5-14.2-13.7c0-.5,0-1,.3-1.2.5-.4,1.5-.3,2-.1,1-.7,2.3-1.2,3.6-.8.4,0,1-.7,1.3-.9h4c.7,0,1.1-.3,1.3-.9l6.2,9.5Z"/>
    <path class="st36" d="M1059.3,417.3v25.1c-.8-.5-1.6-.1-2.5.3-6.6,3.1-12.7,7.3-17.9,12.5s-1.5,1.9-2.4,2.2c-.7-.9-.3-2.1-.6-3.1l-.8-2.9-1.3-3.9c-.4-1.2-.3-1.5-.3-2.7s-1-2.8-1.5-4c.5-.4.9-.9.8-1.4,0-1.1-2.2-2-2-2.7l.4-1.8c.3-1.1-.2-2.9-.9-3.8s-1.2-.5-1.3-.8c-.3-.6.6-1.1.5-1.4l-.3-4.2,1-1.2c.2-.2-.8-.8-1-1.1-.7-1.2-1-2.5-2.2-3.3,7.6-3,21.2-3.8,29.8-2.1s1.8.3,2.5.2Z"/>
    <path class="st36" d="M1028.5,623.4l28.8,13.9c.8.4,1.3.6,1.9.5v36c-1.6.1-3.7-2.5-3.6-3.3s-1-1.7-1.3-2.3c-.5-1.3-1.7-1.3-2.3-2-1.8-1.8-2-5-2.3-7.4l-.8-6c-.1-1-1-3.2-2.4-3.1-6.4.4-12.7.6-19-1.1,1.9-2.9,2.4-5.9,1-8.8v-2.5c-1.4-1.1-2.2-2.5-2.6-4.2l-1.7-1.4-3.9-5c-1.7-1.1-3.2-2.2-3.6-4.3-1-.5-1.9-1.6-2.6-2.2s-1.9-.4-1.9-2c-.9.6-1.6.6-2.2.2s-.9-1-.8-1.9c6.7,1.6,13.2,3.7,19.4,6.7Z"/>
    <path class="st57" d="M1059.3,510.7v37.1c-.7-.2-1.5-.1-2.4,0l-5.4,1.3-5.5-4.7-20.2-17.5c6.2-1.7,11.9-4.2,17.5-7.3l6-3.4c3.8-1.4,6.8-4.5,10.1-5.6Z"/>
    <path class="st57" d="M1059.3,490v11.2s-5.8,3.4-5.8,3.4l-8.2,4.8c-6.2,3.6-17.8,8.3-24.7,7.2l1.5-1,4.6-5.5,1.2-1.4,5-5.1,3.9-3c7-4.7,14.6-8.3,22.5-10.7Z"/>
    <path class="st86" d="M1059.3,442.4v20.9c-6.7,0-13.3.3-19.9,1.4l-2.6.4h-.4c0,0-7.1,1.6-7.1,1.6-.7.3-1-.4-.3-.5l6.2-7,1.2-1.7c.9-.4,1.6-1.4,2.4-2.2,5.2-5.2,11.2-9.4,17.9-12.5s1.7-.8,2.5-.3Z"/>
    <path class="st57" d="M1059.3,463.3v12.5c-.2-.3-.4-.4-.6-.4s-.5.4-.6.5l-2.3,2.6-13.9,14.2c-.8-3.8,1.9-4,1.2-5.7s.2-2.5.3-3.9l.5-4.3c.2-2.1-1.3-3-1.6-4.4l-1.2-5.9c-.6-1.1-.8-2,.2-3-.9-.2-1.5-.2-1.9-.8,6.6-1,13.2-1.4,19.9-1.4Z"/>
    <path class="st86" d="M1059.3,475.8v14.3c-7.9,2.4-15.5,6-22.5,10.7l-3.9,3c-.4-.5.4-1.5,1.3-2.5l7.7-8.6,13.9-14.2,2.3-2.6c.2-.2.4-.5.6-.5s.4.1.6.4Z"/>
    <path class="st86" d="M1059.3,501.3v9.4c-3.3,1.1-6.3,4.2-10.1,5.6-.8-1.4-.5-4-2.2-4.6s-1.8-.8-1.7-2.1l8.2-4.8,5.8-3.4Z"/>
    <path class="st57" d="M1059.3,700.4c-.2-.2-.4-.4-.6-.4h.6c0,0,0,.4,0,.4Z"/>
    <path class="st42" d="M981.3,645.4c-10.2-1.2-24.3-5.2-33.7-9.4-9-3.9-17.8-11.9-26.6-16.7-2.2-1.7-5.2-2.6-7.6-4.1-2.8-1.4-8.5-5.2-11.5-5.7-46.9-25-101.2-10.8-148.3,6.7,3.1.6,5.9-.8,8.7-1.6,1.8.8,3.8-1.1,4.9-1.1,5.2-.2,4.5-2.6,11.1-3.6,1.2.3,2.5.9,3.2-.8,2.3.4,4.8-1.1,7.2-.2.9.2,1.4-2,2.6-1.8s.5.6.7,1.2c.9.8,1.2-1.1,1.3-1.6,1.5,1.7,5.2,1.5,7.2,1.7,4.4.3,8.5,1,12.8,2.2,3.3,1.4,6.6,3.1,9.4,5.2.7,1.6,2.3,2.4,4.1,2-1,2-.2,2.8,1.7,2.7-.6,1.5.7,3.5,2.2,4,.1,2,3.2,3.5,2.9,6.1.1,2.3,1.6,6.9,1.8,9.2,1.5,9.2.8,22.5-.8,31.7,1.3,1.3.8,1.4-.2,2.5-1.7,7.1-4.1,30.9-5,38.9.5.7,1.3,1.8.2,2.8-.8-.7.2-2.7-1.2-2.3,1.5-36.4,24.7-106.9-35.2-103.7-20.8.9-40.9,12.6-61.5,13.4,50-28,103.8-59.6,151.1-91.8,7.9-5.2,16.5-11.7,24.1-17.2,0,0,12.4-10,12.4-10l6.4-5.4c.8-.3,2.5.2,2.3,1-1.1,1.1-.8,2.3-1,3.5-.4,2.6-1.6,5.4-1,8,.7,3.9-.4,5.3,0,7.8.4,2.8.9,6.4-.7,8.7.6,2.3,2.2,2.3,2.7,3.7-1,3.6-.8,7.5-3.8,10.1-.6,2.1-2.2,3.6-4.7,3.5.7,3-.3,5.7-2.8,7,3.1,11-3.9,12.4-.6,17.2l-.8,2.6.4,4c.2,1.7,1.2,3.2.2,5,1,1,1,2.3.4,3.5.3,2.8,2.1,4.4,1.7,6.6l6.7,6c2.3-.2,3.8,1.2,4.6,3.3,3.7,0,5.7,3.8,8.4,5.8.9.8,2.4,1,2.7,5.3,1.6.9,1.7,3.5,2.7,4.8,1.7,2.2,3.9,3.7,4.1,6.8,3.7,2.1,4.3,5.1,6.6,6.7s.4,1.3.5,1.7c.9.3,1.2,1.8,1.7,2.2,1.3,1.2,2.4,2.2,3,3.8.8,2.3,2.8,2.6,4.7,3.1l9.9,2.7c.4.3,8.3,1,7.8,2.2ZM753.7,616.7c-1.2-.8-2.7-.2-3.1,1.1,1-.2,1.9-.1,3.1-1.1Z"/>
    <path class="st50" d="M901.1,608.7v.9c0,0,0,6.3,0,6.3,0,.8-.2,1.5-.2,2.3v1.5c-.5.7-.5,1.5-.6,2.4v1s0,.4,0,.4c-1.1,9.2-7.8,24.3-13.2,32.1l-5.6,8-13.3,16.6-12.7,16.2c-10.2,13.1-19.9,34.4-22.4,51.1-.6.8-.3,1.6-.5,2.5l-.9,5.9c0,0-.3.2-.3.3-.1.2,0,.5.3.5v.6s-.7,0-.7,0c0-.2,0-.4,0-.6v-1c0-.3-.2-.7-.7-.6v-.7c.1-.2.3-.3.3-.6s-.2-.4-.4-.6c0-.2,0-.5,0-.7v-1.3c0-.3-.1-.7-.7-.6v-.7c.3-.2.4-.5.3-.9s-.3-.5-.4-.6c-.1-.3,0-.8,0-1.1.1-.9-.2-1.5-.3-2.3l-.3-2.6c0-.1.2-.3,0-.5l-.2-.3c-.7-6.5-1-13-.7-19.5.5-1,.4-2.2.3-3.2v-.8c0,0,.3-4.4.3-4.4,0-.1.7-.1.7,0,.1.8,0,1.4.4,2.2,1-1,.3-2.1-.2-2.8l3-28.2c.2-1.8.8-2.8,1.4-4.4.5-1.7-1.1-4.6.5-6.4l1-1.1c.4-.4-.6-1-.8-1.4l1.6-12v-12.4s-.8-7.3-.8-7.3l-1.2-5.8c-.2-1.3-.8-2-.7-3.4.3-2.5-2.8-4-2.9-6.1-1.5-.5-2.8-2.6-2.2-4-.7,0-1.7,0-2-.6s0-1.1.3-2.1c-1.8.4-3.4-.4-4.1-2s-1-.8-1.8-1.2c-2.6-1.4-4.8-3.2-7.6-4-4.2-1.3-8.3-1.9-12.8-2.2l-4.5-.3c-1,0-1.8-.8-2.6-1.3l-.3,1.4c0,.4-.9.5-1,.2-.2-.6-.3-1.1-.7-1.2-1.3-.2-1.7,2-2.6,1.8l-1.7-.4c-1.8.3-3.7.8-5.5.6-.4.7-.9,1.3-1.5,1.2l-1.8-.4c-5.1.5-5.3,2.3-7.7,2.9s-2.1.7-3.4.7-3.1,1.9-4.9,1.1c-2.8.8-5.6,2.2-8.7,1.6l35.8-11.9c20.5-5.8,37.6-8.9,59.1-8.4l17.6,1.7,16.5,3.9c6.4,1.9,12.5,4.3,18.4,7Z"/>
    <path class="st61" d="M978.9,673.9l-2.8-.2c2.5,2.2,3.6,4.6,4.4,7.5s2.3,2.6,3.1,4,1.3,2,2.5,2.3c1.7.5,1.7,2.3,2.5,3.1s2.5,1,2.6,2.9.9,1.7,1.6,1.9c1.5.5,1.6,1.6,2.4,2.6l3.7,4.2c.5.6,1.3,1.7,1.9,2.2,1.2.9,2.4,1.3,2.9,2.9s1.8,1.7,2.6,2.6l2.8,2.8c.9,1,2.3,1.2,2.3,3l3.5,1.3,2.2,1.9c.7.7,1.7,1.4,1.6,2.4,0,2.3,2.2,3.7,4.1,4.9s1.2,3.2,2.1,4.2l1.3,1.7c.5.6,0,1.5-.4,2.1,1.4.9,2.5,1.1,3.9.6l1.6,2.2,3,4.5c-.2.8-.3,1.3-.3,2.1,2.6.6,4.1,2.7,4.5,5.5s2.2,1.5,2.8,2.2l1.7,1.7,2.4,3c.7.9,1.6,2.4,1.9,3.5s1.2,1.4,1.8,2.1c1.6,2,2.7,3.9,4.7,5.5s1.3,1.6,2.6,1.1.7,0,.9.1.4.4.3.7l-13.2-1.5c-16.3-1.8-37.1-9.8-49.1-20.6l-5.8-5.2-4.3-4.6c-5.5-6.5-10.2-13.4-13.7-21.2-4.4-9.9-7-20-8.2-30.8-.6-5-1.2-9.8-.8-14.6l11.8,2.2,4.8,1.3Z"/>
    <path class="st86" d="M978.9,673.9c1.1,0,2.2.7,3.2,1l3.7,1,8.9,3.2c9.2,4.1,17.9,9.5,25.1,16.7l4.9,4.9c5,5,8.9,10.5,12.8,16.5s8.4,15,11.7,23.2l9.3,27.4c-.3.2-.4.7-.3,1.1h-.7c.1-.3,0-.6-.3-.7s-.6-.2-.9-.1c-1.3.5-1.9-.6-2.6-1.1-2.1-1.5-3.2-3.5-4.7-5.5s-1.4-.8-1.8-2.1-1.2-2.6-1.9-3.5l-2.4-3-1.7-1.7c-.6-.6-2.7-1.1-2.8-2.2-.4-2.8-1.9-4.9-4.5-5.5,0-.8,0-1.3.3-2.1l-3-4.5-1.6-2.2c-1.3.5-2.5.3-3.9-.6.3-.6.9-1.5.4-2.1l-1.3-1.7c-.9-1.1-.8-3.4-2.1-4.2-1.9-1.2-4.1-2.6-4.1-4.9s-.9-1.8-1.6-2.4l-2.2-1.9-3.5-1.3c0-1.8-1.3-2-2.3-3l-2.8-2.8c-.9-.9-2.2-1.2-2.6-2.6s-1.7-2-2.9-2.9-1.3-1.5-1.9-2.2l-3.7-4.2c-.8-.9-1-2.1-2.4-2.6s-1.6-1.3-1.6-1.9c0-1.9-1.6-2-2.6-2.9s-.8-2.6-2.5-3.1-1.9-1.3-2.5-2.3-2.6-2.5-3.1-4c-.8-3-1.9-5.3-4.4-7.5l2.8.2Z"/>
    <path class="st78" d="M947.6,636c1.6,2.3,3.9,3.8,6.2,5.5l5.8,4.3,7,5.8,6.1,5.2,4.4,4,12.9,12.5,4.1,4.2c.5.5.8,1,.8,1.6l-8.9-3.2c.3-.2.7-.4,1.2-.6l-2.3-3.6c-1.1-1.8-2.5-3.2-4.2-4.4-1.9-2.6-4.1-4.6-6.5-6.7l-6.4-5.6-8.9-7.6-3.8-3-3.7-2.2-4.4-2.9-2.9-1.7c-1.6-.9-2.6-2.4-4.4-3.1l-1.3-1.3c-1.8-.6-3.1-1.6-4.6-2.5s-3.4-2.8-5.2-4.1l-4.6-3.4c-.3-.2-.5-.8-.8-.8s-.7,0-1.2.2c.2-1.9-1.3-2.3-1.1-3.2l9.7,6c5.6,3.9,10.8,8.2,16.9,10.7Z"/>
    <path class="st78" d="M900.4,622c0-.8,0-1.7.6-2.4,0,.8.4,2.1-.6,2.4Z"/>
    <path class="st78" d="M900.9,618.2c0-.8.2-1.5.2-2.3.6.6.4,1.6-.2,2.3Z"/>
    <path class="st78" d="M901.9,609.5c-.2,0-.5,0-.7,0v-.9c.3.2.7.2.7.8Z"/>
    <path class="st78" d="M971.6,550.7l11,1.6c.4,3.9,1.6,7.7,2.8,11.6,3.6,11.5,9.5,21.9,17.7,30.5l4.4,4.6c5.9,6.1,13.1,10.6,20.6,14.6s.7,1.1.9.9c.6-.3,1-.1,1.2.2.5.9-1.6,1.9-1.4,2.7l.5,1.6c.1.4-1.1,1-1.1,1.5l.2,2.9c-6.2-3-12.8-5.1-19.4-6.7s-14.4-3-21.8-3c.2-1.5-2.1-.2-4.6-1-.6-2.5-1.5-4.6-2.6-6.8-2.5-4.7-1-9-4.2-10.7l-5.9-3.2-8.9-6.7-6.2-6.3c-16.1-18.4-22.2-41.8-16.8-65.9,1.3-5.6,2.7-11.1,5.3-16,.7.4.2,1,.2,1.6-.7,7.5-.9,14.8,0,22.3.9,8.4,4.7,15.4,10.9,21,4.9,4.5,10.8,7.2,17.2,8.7Z"/>
    <path class="st86" d="M971.2,458c0,.9-.4,1.8-.3,2.9.4,4.1.5,8.3,1.7,12.3s0,4.1-1.8,5.3c0,1.4-.7,2.6-1.5,3.8-1.5,2.6-2,5.8-2.4,8.8s.3,2.5-.7,3.7c1.9,1.3,1.2,3,1.3,4.7l.2,4.4.6,6.8c-.3,3.1-.5,6,.5,9l.7,4.1c1,1.7.2,3,.2,4.6,0,3.6.9,7.2,1.3,10.8l.5,4.4.3,4.5c0,1,.5,1.9-.4,2.6-6.3-1.4-12.3-4.2-17.2-8.7-6.2-5.7-10-12.6-10.9-21-.8-7.5-.6-14.8,0-22.3s.5-1.2-.2-1.6c1.5-5.5,3.7-10.7,6.6-15.6,3.1-5.2,6.4-10.3,10.8-14.7l4.3-4.4c2.1-1.5,3.8-3.6,6.2-4.3Z"/>
    <path class="st78" d="M1012.8,646l-4.6-4.3c0-.2.2-.4.2-.4l7.2,3.8c-1.3.2-2.3-.1-2.8.8Z"/>
    <path class="st42" d="M936.7,490.3v-.5c.4,0,.3.5,0,.5Z"/>
    <path class="st61" d="M987.8,454.1l-2.4,5.1-2.3,1.3c-1.2.6-1.8.5-2.6,1.7s-2.1,1.3-2.3,2.4l-.9,5-.3,3.7c-.1,1.3-.1,1.8-1.1,2.8l-1,2.4c0,.2,0,.7,0,.8.1.2.5.3.8.2-.2.8-.3,1.5-.1,2.3-.2.1-.1.3,0,.4.8,2.5,2,4.9,3.8,7.1l7.8,9.2,14.2,13.7,7.9,7.5,19.6,17.9,15.3,13-10.4,1.8c0-.4-.1-.7-.2-.9-.2-.4-.7-.2-1-.3l-5.9-1-5-2.2-3.9-1.8c-1.3-.6-2.2-1.6-4-1-1-1.2-2.4-1.6-3.9-1.7-.7-1.4-1.9-2.4-3.4-2.7l-5-4.9c-2,.4-4.7,0-6.4-1.6l-3.2-2.9c-.1-1.4.3-3.5-1.1-4.5s-1.9-1.1-1.2-2.2.6-1.3.6-2.2-.9-1.2-1.4-1.9c-.8-1.2-.9-2.9-1.3-4.4s-4.7-3.1-4.2-3.3l-1.4.4c.1-.8.4-1.5-.2-2.3l-.3,9.3c-.4,10.7.1,21.2,1.1,31.7l-11-1.6c.9-.7.5-1.6.4-2.6l-.3-4.5-.5-4.4c-.4-3.6-1.3-7.3-1.3-10.8s.8-2.9-.2-4.6l-.7-4.1c-1-3.1-.8-5.9-.5-9l-.6-6.8-.2-4.4c0-1.7.6-3.4-1.3-4.7,1-1.2.5-2.4.7-3.7.4-3,.9-6.3,2.4-8.8s1.5-2.4,1.5-3.8c1.8-1.2,2.4-3.2,1.8-5.3-1.2-4-1.4-8.1-1.7-12.3s.2-1.9.3-2.9l7.7-2.4c2.9-.9,5.8-1.4,8.9-1.6ZM983.4,497.3c.3-.1.3-1,0-1.4-.3.1-.5.4-.6.6-.2.3-.1,1,.6.8ZM982.3,504.4c1.3-1.5,1.1-3.2.5-4.7-.5,1.7-.5,3.2-.5,4.7ZM982.1,505.8l-.4,4.1c0,.8.9.8.8,0-.3-3.1,1-5.9-.4-4.1Z"/>
    <path class="st61" d="M1026.9,419.2c1.2.8,1.6,2.1,2.2,3.3s1.1.9,1,1.1l-1,1.2.3,4.2c0,.3-.8.8-.5,1.4s1,.4,1.3.8c.7.9,1.2,2.6.9,3.8l-.4,1.8c-.2.8,2,1.6,2,2.7s-.3.9-.8,1.4c.5,1.2,1.5,2.7,1.5,4s0,1.5.3,2.7l1.3,3.9.8,2.9c.3,1,0,2.2.6,3.1l-1.2,1.7-6.2,7c-.7.1-.4.8.3.5v.4c-.6,0-1.4-.2-2.3,0-6.7,1.6-12.8,4.6-18.4,8.3v-1.3c-1.8.8-2-.7-2.7-1.3l-3.4-2.6c-1.1-.8-2.3-1.4-2.9-2.7-2.5.1-4.8-1.2-6.2-3.3s-2.5-1.4-3.5-2v-1.6c-.2-.4-.6-.7-1.1-.7v-.7c8.5-7.4,16.8-5.8,26.7-3.5l4.4,1c-.5-1.3-.2-1.8.2-2.8-1-1.7-3.4-1.8-3.2-4.9-.4-.4-2.1-1.1-1.8-1.8.5-1.5.3-1.9-.5-3.2s-.5-2.4-1.7-3.3c1.8-3.3-2.1-6.6.3-9.8s-2.3-1.6-3.2-3.5c2.6-1.9,5.2-3.8,8.4-5l8.5-3.3Z"/>
    <path class="st86" d="M1010.1,427.5c.8,1.9,4.6,1.6,3.2,3.5-2.3,3.1,1.5,6.5-.3,9.8,1.2.8,1.1,2.4,1.7,3.3.8,1.3,1,1.7.5,3.2s1.4,1.4,1.8,1.8c-.3,3.1,2.2,3.2,3.2,4.9-.4,1-.7,1.5-.2,2.8l-4.4-1c-10-2.3-18.3-3.9-26.6,3.5-.2,0-.4,0-.6,0s-.3.4-.3.7l-.3.5c-1.2-.2-.8,1.4-2.8,1.8l-7.4,13.5c-.8,1.4-1.5,2.7-1.9,4.1-.2,0-.6,0-.8-.2s-.1-.6,0-.8l1-2.4c.9-1,.9-1.5,1.1-2.8l.3-3.7.9-5c.2-1.1,1.9-1.7,2.3-2.4.8-1.3,1.4-1.1,2.6-1.7l2.3-1.3,2.4-5.1,1.5-3.1c4.8-9.6,12.3-17.3,20.7-23.5Z"/>
    <path class="st86" d="M988.8,459.9c.6,0,1,.3,1,.7v1.6c1.1.6,2.9.9,3.7,2,1.4,2.1,3.6,3.5,6.2,3.3.5,1.3,1.8,1.9,2.9,2.7l3.4,2.6c.7.6.9,2,2.7,1.3v1.3c-4.1,2.7-7.8,6.2-11.5,9.7s-.7,1.5-1.7,1.5l-5-8.5c-3.4-5.8-6.2-12.4-2.7-17.7s.2-.4.3-.5h.7Z"/>
    <path class="st50" d="M1006.1,554.6h.5c0,0,7,.7,7,.7l9.7,1,9.8.8,9.8,1.1-11.6.6-17.6-2.1-17.5-2.9c3.6-.5,6.7.4,9.9.8Z"/>
    <path class="st78" d="M1006.6,554.7h-.5c0,0,.5,0,.5,0Z"/>
    <path class="st78" d="M1016.2,645.4c.2.3.5,0,.2-.2l.5.5c-.2-.3-.5,0-.2.2l-.5-.5Z"/>
    <path class="st50" d="M987.8,460.4c-3.5,5.3-.7,11.9,2.7,17.7l5,8.5,4.4,8.1c-.2.6-.6.9-1.3.9h-4c-.3.2-.9.9-1.3.9-1.4-.4-2.6.1-3.6.8-.5-.2-1.5-.3-2,.1s-.2.7-.3,1.2l-7.8-9.2c-1.8-2.1-3-4.6-3.8-7.1v-.4c-.3-.8-.2-1.5,0-2.3.4-1.4,1.1-2.6,1.9-4.1l7.4-13.5c2-.3,1.5-2,2.8-1.8ZM997.9,494c0-.2-.2-.4-.4-.4s-.4.2-.4.4.2.4.4.4.4-.2.4-.4Z"/>
    <path class="st50" d="M988.9,459.2v.7c-.1,0-.9,0-.9,0,0-.3,0-.6.3-.7s.4-.1.6,0Z"/>
    <path class="st50" d="M987.8,460.4l.3-.5c-.1,0-.2.3-.3.5Z"/>
    <path class="st86" d="M1026.7,510.2l-4.6,5.5-1.5,1c-1.4-.2-2.6-.5-4-1.3s-3.9-2-5.2-3.8l-5.4-7.3c1.4-7.5,4.4-13.7,8.3-20,.9.3,1.8-.5,2.5-.5,1.7,0,1.9,1.9,1.6,3.2s.3,2.9.4,4.4l1.9,4.3c.6,1.4.7,2.6,1.3,4l2.3,6c.6,1.6,2.3,2.7,2.3,4.5Z"/>
    <path class="st57" d="M1029.4,467c0,.2-.2.4-.4.3-1.1,0-1.2.7-1.5,1l-1.9,1.4c-4,3.8-7.2,8.1-10.1,12.7l-1.1,1.8c-4,6.3-7,12.5-8.3,20l-6.2-9.5-4.4-8.1c1,0,1.2-1,1.7-1.5,3.7-3.5,7.3-7,11.5-9.7s11.7-6.7,18.4-8.3,1.6-.1,2.3,0Z"/>
    <path class="st61" d="M1034.2,501.3c-.9,1-1.7,2-1.3,2.5l-5,5.1-1.2,1.4c0-1.8-1.7-2.9-2.3-4.5l-2.3-6c-.5-1.4-.6-2.6-1.3-4l-1.9-4.3c-.1-1.5-.7-2.9-.4-4.4s.1-3.2-1.6-3.2-1.7.8-2.5.5l1.1-1.8c2.9-4.6,6.2-8.9,10.1-12.7l1.9-1.4c.9.7.4,2.5.9,3.3.8,1.2,1.5,1.6,1.5,3.2,0,3.1,2.8,6,2.7,11.5v2.9c-.1,3.3-.9,6.6,1,9.6s.4,1.7.7,2.4Z"/>
    <path class="st36" d="M1039.4,464.6c.4.6,1,.6,1.9.8-1.1,1-.8,1.9-.2,3l1.2,5.9c.3,1.4,1.8,2.3,1.6,4.4l-.5,4.3c-.2,1.4-.9,2.5-.3,3.9s-2,1.9-1.2,5.7l-7.7,8.6c-.3-.8-.3-1.7-.7-2.4-1.9-3-1.2-6.3-1.1-9.6v-2.9c.2-5.5-2.6-8.4-2.6-11.5s-.7-2.1-1.5-3.2,0-2.6-.9-3.3c.3-.3.5-1.1,1.5-1s.4-.1.4-.3v-.4c0,0,7.1-1.5,7.1-1.5,0,.6.6.3.4,0l2.6-.4Z"/>
    <path class="st57" d="M1036.4,465.1h.4c.2.3-.3.6-.4,0Z"/>
    <polyline class="st61" points="792.7 473.1 770 381.9 835.3 436.2 792.7 473.1"/>
    <path class="st61" d="M836.9,470.8"/>
    <path class="st61" d="M830.7,440.4"/>
    <path class="st61" d="M835.3,470.1l19.4,7.6c-5-31.8-14.5-86.5-19.4-118.4,0,0,.2,97.3,0,110.8Z"/>
    <path class="st69" d="M948.2,480.6c-16.4,12.8-33.8,28.8-51,40.9-50.9,36.2-108.7,69.7-163,100.6l-14.3-17.4c2.9-5.6,13.1-16.4,17.3-21.7.5-.6.6-1.1,1.3-1.2,2.6-.9,9.8-10.9,12-12.8,1.4-1.8,5.8-5.6,6.2-7.9.7-5.6,2.3-16.3,3.3-22,2.5-16.9,7.4-33.8,17.7-47.5.4-.7,1.2-1.2.8-2.2,2.1-2.5,4.6-6.2,7-8.4.6-1,7.6-6.7,7.1-7.8,1,.2,1.5-.7,2.2-1.3,2-1.7,5.8-5.2,7.7-7,0,0,17.9-15.8,17.9-15.8,4.9-4,9.8-10,15.6-12.6l.4,34.6,17.7,6.7c-4.9-34.1-14.8-84-18.6-118.1,0,0,103.2,110,112.7,120.9Z"/>
    <path class="st46" d="M779.6,555.4c-2.4.8-4.8,2.3-6.7,3.5.4-1.7,1.1-2.8,1.7-3.7l5.1-7.3,2.7-3.3c1.2-1.4,2.5-3.5,4.2-3.9l10.9-3.4,15.2-4c0,1.3-1.3,1.7-2,2.5l-8.3,9c-2.4,2.6-5.2,4.5-8.6,5.7l-14.3,5Z"/>
    <path class="st50" d="M757.3,557.2c-.2.2-.2.5-.5,1.1l-.4-1.5c0-.2,0-.5,0-.7.3,0,.4-.4.3-.7l.8-5.2,2.3-16.5c1.8-12.9,6-25.1,13.1-36l.6.2c-3.1,4.7-5,10.1-7.2,15.4l-1.2,3.6c-2.3,7.2-3.8,14.5-5,22.1l-2.1,12.8-.7,5.3Z"/>
    <path class="st78" d="M757.3,557.2l-.5,3.8c-.1.8-1,2.1-1.6,2.8l-4.6,5.1-8.8,10c-1,1.1-1.9,2.6-3.2,2.8.4-1.4,1.6-2.2,2.6-3.4l9.7-11.2c1.6-1.8,3.4-3.7,4.5-6.1l1-4.2.4,1.5c.3-.7.3-.9.5-1.1Z"/>
    <path class="st78" d="M778.6,489.3c.3,1-.4,1.5-.8,2.2l-4.4,6.5-.6-.2,1.9-3.6,3.9-4.9Z"/>
    <path class="st86" d="M982.1,505.8c1.5-1.8.1,1,.4,4.1s-.9.8-.8,0l.4-4.1Z"/>
    <path class="st86" d="M982.3,504.4c0-1.5,0-2.9.5-4.7.6,1.5.8,3.1-.5,4.7Z"/>
    <path class="st86" d="M983.4,497.3c-.7.2-.7-.6-.6-.8s.3-.5.6-.6c.2.4.2,1.3,0,1.4Z"/>
    <path class="st86" d="M975.7,482.4c-.2,0-.3-.2,0-.4v.4Z"/>
    <circle class="st78" cx="997.4" cy="494" r=".4"/>
    <path class="st46" d="M720,604.6c.6,1,14.5,17.3,14.3,17.4l-2.4,1.3c-1-.2-20.7-6.7-22.4-7.7,3-2.9,7.8-8.3,10.5-11Z"/>
  </g>
  <g>
    <g class="st91">
      <g class="st48">
        <image width="3431" height="2301" transform="translate(-5.3 -5.1) scale(.5)" xlink:href="Fox  illustration-3.png"/>
      </g>
    </g>
    <g class="st84">
      <g class="st60">
        <image width="176" height="291" transform="translate(1558.5192 344.8583) scale(.48)" xlink:href="Fox  illustration-4.png"/>
      </g>
    </g>
    <path class="st90" d="M1570.2,450.3s51.1-6.3,67.7,4.8l-1.5,80.9-89.8-6.8,23.6-78.8Z"/>
    <path class="st11" d="M1546.7,529.1l64.6-37.8s-37.8,7-47.6,0-17.1,37.8-17.1,37.8Z"/>
    <g class="st15">
      <g class="st51">
        <image width="440" height="487" transform="translate(1433.7192 724.0583) scale(.48)" xlink:href="Fox  illustration-5.png"/>
      </g>
    </g>
    <g class="st4">
      <g class="st5">
        <image width="590" height="405" transform="translate(1359.7992 566.6183) scale(.48)" xlink:href="Fox  illustration-6.png"/>
      </g>
    </g>
    <path class="st31" d="M1439.2,952.3s55-30,55.5-31.5c8.4-25.1,23.2-79.7,13.5-133l-52.2,26.9-16.9,137.6Z"/>
    <g class="st55">
      <g class="st29">
        <image width="330" height="290" transform="translate(1464.9192 234.9383) scale(.48)" xlink:href="Fox  illustration-7.png"/>
      </g>
    </g>
    <g class="st30">
      <g class="st39">
        <image width="108" height="181" transform="translate(1478.3592 265.1783) scale(.48)" xlink:href="Fox  illustration-8.png"/>
      </g>
    </g>
    <polygon class="st53" points="1478.7 334.7 1489.1 325.7 1498.6 346.6 1478.7 334.7"/>
    <image width="108" height="180" transform="translate(939.3 297)" xlink:href="Fox  illustration-9.png"/>
    <path class="st93" d="M937,538l140-93.4,79.7-57.1,92.4-58.4,16-8.9,126.1,130.4-143.2,92.8s-70.4-34.2-132.7-40.5c-62.3-6.3-178.1,35.1-178.1,35.1Z"/>
    <path class="st71" d="M1087.7,747.3s90.4-19.2,174.1,15.7c83.7,34.9,148.3,98.5,161.7,203.7l11.3-12.4v-194.6s-93.3-189.8-240.6-242.4c0,0-.5,49.1-23.7,74.6-23.2,25.5-82.1,88.5-82.8,155.4Z"/>
    <g class="st64">
      <g class="st87">
        <image width="519" height="551" transform="translate(1190.8392 315.0983) scale(.48)" xlink:href="Fox  illustration-10.png"/>
      </g>
    </g>
    <path class="st18" d="M1265.2,329.1s-65.5,130.5,67.1,173.8h25l-92.1-173.8Z"/>
    <g class="st66">
      <g class="st12">
        <image width="388" height="444" transform="translate(1299.7992 219.0983) scale(.48)" xlink:href="Fox  illustration-11.png"/>
      </g>
    </g>
    <path class="st92" d="M1034.7,1083.4h-2.9c.2-1.4-.5-2.5-1.3-3.9,2.7-.5,4.1,2,4.2,3.9Z"/>
    <g class="st83">
      <g class="st6">
        <image width="292" height="305" transform="translate(1299.7992 517.1783) scale(.48)" xlink:href="Fox  illustration-12.png"/>
      </g>
    </g>
    <path class="st88" d="M1302.2,285.5s15.3-4.9,23.7-5l-7.6,15.5-13.3,24.5s-4.8-18.5-2.7-35.1Z"/>
    <g class="st14">
      <g class="st68">
        <image width="224" height="192" transform="translate(1348.2792 287.7383) scale(.48)" xlink:href="Fox  illustration-13.png"/>
      </g>
    </g>
    <path class="st20" d="M1434.8,334.7v17.1s-31.4,24-57.9,22.6c0,0,23.8-30.2,57.9-39.7"/>
    <path class="st70" d="M1388.1,300.4s2.2-2.8,5.7-6.8c8.8-10,26.1-27.8,41-31.9,21.1-5.8,0,0,0,0v31.2s-16.8.4-46.8,7.5Z"/>
    <path class="st44" d="M1338.1,329.1s-.6-1.5-2.5-4.5c-6.4-10.3-20.3-35.7,5.2-44.1,32.1-10.6,52.9,13,52.9,13l-5.7,6.8s-35.2,12-50,28.8Z"/>
    <path class="st75" d="M1353.4,354.8s13.1-37.1,34.7-54.5c0,0-36.7,10.4-50,28.8,0,0,7.8,12.7,15.3,25.7Z"/>
    <g class="st52">
      <g class="st3">
        <image width="225" height="222" transform="translate(1310.8392 336.6983) scale(.48)" xlink:href="Fox  illustration-14.png"/>
      </g>
    </g>
    <path class="st19" d="M1384.4,391s37.9-12.7,50.4-26.1h0v56.3l-9.6,5-40.9-35.1Z"/>
    <path class="st32" d="M1359.9,569.2s33.6,14,74.9,5.3h0v83.7s-11.1-31.3-74.9-89Z"/>
    <path class="st47" d="M935.7,538s16.4.7,33.8-6.4c17.4-7,73.3-23.1,96.1-8.4,22.8,14.7,29.8,37.5,28.1,63-1.7,25.4-19.8,112.8-5.7,158.7,0,0,2.3-42.5,26.1-79.4,23.8-36.8,45.2-58.6,45.2-58.6,0,0,38.3-30.1,34.8-89.7,0,0-19.1-17.1-94.4-20.4,0,0-40.9-2-98.1,19.1-57.3,21.1-66,22.1-66,22.1Z"/>
    <path class="st85" d="M1069.6,846.6c.8-3.1,1.7-6.1,2.7-9.2,28.1-86.7,53.6-94.6,53.6-94.6,0,0,76.8-10.1,165.3,32,88.5,42.1,143.6,179.4,143.6,179.4,0,0-62.5,69-152.2,76.3-89.7,7.4-139.3-4.2-186.9-32.8,0,0-47.9-68.5-26.2-151.2Z"/>
    <path class="st35" d="M1095.7,997.8s-86.4-122.9,30.1-255c0,0-159.4-4.9-242.4,176,0,0,73.7-11.4,212.3,79Z"/>
    <g class="st16">
      <g class="st17">
        <image width="363" height="435" transform="translate(1264.7592 553.1783) scale(.48)" xlink:href="Fox  illustration-15.png"/>
      </g>
    </g>
    <path class="st8" d="M781.5,1094.1c0-.3-4.8-33.9,5.4-72.1,9.4-35.3,33.8-82.1,96.7-104l.5,1.4c-62.3,21.7-86.4,67.9-95.8,102.9-10.1,38-5.4,71.2-5.3,71.6l-1.5.2Z"/>
    <polygon class="st2" points="917.2 509.5 940.6 535.9 935.7 538 902.8 526.3 917.2 509.5"/>
    <path class="st56" d="M940.6,535.9l-23.3-26.4,57.9-69s.3-27.5,11.7-65.6c11.4-38.2,43.5-65.3,43.5-65.3,0,0,28.1-26.5,33.2-30.1,5-3.7,31.1-27.8,31.1-27.8v54.9l27.8,9.7-27.8-179.5,170.3,183.3s-128,113.5-324.4,215.7Z"/>
    <polygon class="st59" points="1456.1 294.9 1477.2 320.2 1492.3 312.9 1492.3 300.6 1456.1 294.9"/>
    <path class="st80" d="M999.3,438.9s15.1-23.1,20.8-27.5c5.7-4.4,39.5-10.4,39.5-10.4l-18.8,21.1s-12.1,8.2-22.8,9.6c-10.7,1.4-18.8,7.1-18.8,7.1Z"/>
    <polygon class="st28" points="1030.4 309.6 994.6 171.7 1094.7 251.7 1030.4 309.6"/>
    <polygon class="st0" points="1094.7 306.6 1094.7 134.8 1122.5 316.3 1094.7 306.6"/>
    <path class="st13" d="M1423.5,966.6s-7.7-226.3-297.7-223.8c0,0,50.4,11.4,132.4,127.5,81.9,116.1,165.3,96.4,165.3,96.4Z"/>
    <path class="st1" d="M940.6,925.1s-15.6,116.5,99.6,169c115.2,52.4,0,0,0,0h-165.4s-34.9-95,9.7-174.4c0,0,16.3-4.1,56.2,5.4Z"/>
    <path class="st9" d="M1343.5,1094c25.2-13.3,49.6-28.9,70.7-48,6.9-6.5,13.5-13.5,19-21.2,6.5-6.2,12.2-13.2,17.6-20.3,37.8-50.5,56.7-113.2,61-175.7-2.5,53.9-16.7,107.7-44.6,154.2-9.4,15.4-20,30.2-33,42.8-5.1,7.2-12.3,14.9-19.2,21.1-21.4,19.1-46,34.3-71.5,47.2h0Z"/>
    <path class="st73" d="M1355.7,1027.6s8.9-4.5,13.1-14.6c0,0,4.2,11.6,13.1,14.6,0,0-11.4,3.5-13.1,14.6,0,0-1.8-9.5-13.1-14.6Z"/>
    <path class="st7" d="M1082.8,677.8c-55-80.6-48.2-159.8-48.1-160.5h1.5c0,.9-6.8,79.5,47.9,159.7l-1.3.9Z"/>
    <path class="st10" d="M1240.7,293.7l-1.3-.8c.2-.3,16-26.2,47.8-52.6,29.4-24.3,78.8-54,147.5-57.1.8,0,78.1-4.5,136.4,66l-1.2,1c-57.7-69.9-134.3-65.5-135.1-65.5-68.3,3.1-117.4,32.5-146.6,56.7-31.7,26.2-47.4,52-47.5,52.2Z"/>
    <path class="st74" d="M1560.4,383.1l3.3,13.6s-39.5,117.1-80.4,144.5c0,0-44.3,1.4-53.5-1.1s4.9-99.9,4.9-99.9l125.6-57.1Z"/>
    <path class="st10" d="M1181.7,226.1l-1.2-1c.3-.3,26.7-30.9,71.1-60,41-26.9,106-58,183.2-53.6.3,0,33.7,1.9,75,16.7,38.2,13.6,91.3,41.2,127.2,95.6l-1.3.8c-35.7-54-88.4-81.5-126.4-95-41.2-14.7-74.3-16.6-74.6-16.6-76.8-4.4-141.5,26.6-182.3,53.3-44.2,29-70.5,59.5-70.8,59.8Z"/>
    <path class="st79" d="M1434.8,426.1"/>
    <path class="st23" d="M1437.8,439.5l-3,.8c-34.6,5.7-88-7-88-7,28.5,4.8,87-11.5,87-11.5l54.3-20.9,77.7-38.8s23.1-10.2,31.8-10.4c0,0-11.1,21.1-29.1,27.1-18.1,6-30.8,16.8-30.8,16.8-.7.5-38.5,27.1-73.7,41"/>
    <path class="st65" d="M1318.2,428.4s-64.3-.2-59.8-65c4.5-64.8,43.7-77.9,43.7-77.9,0,0-2.1,31.4,13.2,52.3q2.9,4,2.9,4s-4,68.8,0,86.6Z"/>
    <path class="st24" d="M975.2,440.6c1.5-32.7,9-81.2,32.2-105.5-3,3.5-5.7,7.4-8,11.4-7,12.1-11.4,25.5-14.8,39-4.6,18-7.5,36.5-9.4,55.1h0Z"/>
    <g>
      <path class="st25" d="M1183.2,745.5c58.9,5.1,117.5,26.9,162.7,65.4,35.5,30.6,59.7,72,70.9,117.3,1.3,5.1,2.9,13.9,4,19.1.3,2.1.8,6.2,1.1,8.3,0,0,1.5,11,1.5,11-.6-3.9-1.9-12.8-2.5-16.5-.2-1.4-.7-4.1-1-5.5-1.4-6.4-3.2-15.5-5.2-21.6-12.7-47.3-39.7-88-78.1-118.4-43.9-34-98.4-53.7-153.5-59.2h0Z"/>
      <path class="st27" d="M1270.1,558.4c27.8,21.5,53.4,46,78.2,70.9-25.8-23-52.2-48.1-78.2-70.9h0Z"/>
      <path class="st26" d="M1334.3,431.3c25.3,5.3,51.1,9.1,77,10,3.7.2,7.4.1,11.1.3-29.6,1.8-59.6-2.2-88.1-10.3h0Z"/>
      <path class="st24" d="M1361.8,572.6c-72.7,6.7-144.4-22.1-161.6-98.9,0,0-.9-3.6-.9-3.6,0,0-.6-3.7-.6-3.7-.7-4.2-1.8-10.5-2-14.7,0,0-.7-7.4-.7-7.4,0,0,.9,7.4.9,7.4.4,4.2,1.5,10.5,2.4,14.6,0,0,.7,3.6.7,3.6l1,3.6c6.8,28.7,23.4,55.4,47.9,72.2,32.5,22.6,74.1,29.5,113,26.9h0Z"/>
    </g>
    <image width="386" height="642" transform="translate(1110.3192 396.0183)" xlink:href="Fox  illustration-16.png"/>
    <path class="st70" d="M1434.8,292.9l15.8.4s22.1-22.8,32.8-21.1c0,0-9.4-27.5-48.6-10.6v31.2Z"/>
    <g class="st89">
      <g class="st33">
        <image width="114" height="108" transform="translate(1429.3992 288.2183) scale(.48)" xlink:href="Fox  illustration-17.png"/>
      </g>
    </g>
    <path class="st45" d="M1492.6,304.3l-42.1-11s17.2-20.4,32.3-21.4c0,0,12.1,25.5,9.7,32.3Z"/>
    <path class="st49" d="M1444.4,358.1s40.7-3.8,46.4,9l12.1-19.4-24.1-12.9-34.3,23.3Z"/>
    <path class="st72" d="M1433.8,421.7l25.3-9.7,31.7-44.9s-7.4-13.6-46.4-9l-10.6,7.9v55.7Z"/>
    <path class="st63" d="M1529.3,312.9s21.7,35.4,22.4,54.1l-28.1,16.1s-3.6-24.8-11.7-32.2l17.4-38Z"/>
    <path class="st58" d="M1511.9,350.9s12.6,9.9,11.7,32.2l-50,23.3s37.9-52.9,38.3-55.5Z"/>
    <polygon class="st43" points="1433.8 334.7 1462.1 332.4 1433.7 352.6 1433.8 334.7"/>
    <path class="st22" d="M1473.6,406.4s88.1-102.1,42.6-130.5c0,0,8.7,24.5,1.7,42.3-5.3,13.5-58.8,93.8-58.8,93.8l14.5-5.6Z"/>
    <polygon class="st37" points="1580.7 374.5 1563.8 396.6 1560.4 383.1 1580.7 374.5"/>
    <path class="st76" d="M1483.4,541.2s33.5,3.8,53.6-4.2c7.8-3.1,14.6-13.6,20-25.3,8.9-19.2,13.3-40.2,13.2-61.4,0-24.9,1-63.3,7.3-71.7,0,0-14.6,14.6-38,75.4-19.4,50.3-39.1,70.9-56.1,87.1Z"/>
    <path class="st79" d="M1434.8,541.2v-101s21.6-5.5,0,0c-21.6,5.5-116.6-11.8-116.6-11.8,11.1,93.7,116.6,112.8,116.6,112.8"/>
    <polygon class="st81" points="1466.5 882 1528 747.6 1444.4 675 1466.5 882"/>
    <path class="st23" d="M1433.8,351.6c-.6-.2,69.6-44,57.3-56.7,0,0,14.4,17.1-2,30.7-5.2,4.3-54.3,39.2-54.3,39.2l-1-13.3Z"/>
    <path class="st82" d="M1516.9,590.4s61.3,84.9,8,155.1c0,0-64.3.9-65.8-97.6,0,0,8.8-48.6,57.8-57.5Z"/>
    <path class="st21" d="M1511.9,790.6"/>
    <path class="st21" d="M1434.8,658.2s59.8,137.3,31.7,223.8c0,0-5.3-76.9-31.7-127.3v-96.4c-10-27.3-74.9-89-74.9-89l-6.5,5.3s30.6,38.4,52.4,78.7c23.9,44.2,29,101.5,29,101.5"/>
    <path class="st62" d="M1528,747.6s3-46.4,78.4-63.5l30.1,48.3c-14.1,17-86.3,35.5-108.4,15.2Z"/>
    <path class="st71" d="M1430.3,960.1s37-40.6,37-90.3c0-85.4-62.2-158.6-62.2-158.6v80.2l17.2,168.7h8Z"/>
    <path class="st40" d="M1546.7,529.1l-10.9,7.6s-10.5,10.4-56.9,5.2l-.2.2-43.8-.9v21.1l20.1,3.5-.4.4c9.3,8.1,30.4,15.3,30.4,15.3,0,0,25.4,10.2,71.7,2,46.3-8.1,79.8-47.5,79.8-47.5l-89.8-6.8Z"/>
    <path class="st34" d="M1287.3,610s-6.8,149.7,147.5,149.7c3,0,0,0,0,0,0,0-21-135.6-147.5-149.7Z"/>
    <path class="st9" d="M1436.1,952.3c75.1-35.6,143-86.2,200.3-146.3,0,0-10.6,11.4-10.6,11.4-3.5,3.8-7.1,7.7-10.8,11.2-20.1,20.2-42.2,39-64.9,56.2-35.5,26.3-73.4,49.9-114,67.5h0Z"/>
    <path class="st9" d="M1516.8,587.6c62.1,31.3,107.8,94,108.5,164.8,0,0-.5-6.4-.5-6.4-.5-6.4-1.3-12.9-2.6-19.2-10.5-59.7-52.9-110.5-105.4-139.2h0Z"/>
  </g>
</svg>